<svg xmlns="http://www.w3.org/2000/svg" width="595.598" height="687.839" viewBox="-4.304 112.558 595.598 687.839" enable-background="new -4.304 112.558 595.598 687.839"><path stroke="#fff" stroke-width="8" stroke-miterlimit="10" d="M292.663 795.27l.83.492 292.933-169.159.868-.485v-339.289l-292.978-169.103-.823-.509-292.975 169.135-.822.476v339.288l292.967 169.154z" fill="none"/><circle fill="#fff" cx="247.26" cy="456.384" r="5.213"/><circle fill="#fff" cx="293.456" cy="376.134" r="5.213"/><circle fill="#fff" cx="154.588" cy="456.384" r="5.21"/><linearGradient id="a" gradientUnits="userSpaceOnUse" x1="97.765" y1="642.207" x2="117.483" y2="608.056" gradientTransform="matrix(2.411 0 0 2.411 -1.468 -1150.437)"><stop offset=".002" stop-color="#00B0A9"/><stop offset=".276" stop-color="#00AEA7"/><stop offset=".434" stop-color="#01A5A2"/><stop offset=".562" stop-color="#029798"/><stop offset=".675" stop-color="#04838A"/><stop offset=".777" stop-color="#066A79"/><stop offset=".872" stop-color="#094A63"/><stop offset=".959" stop-color="#0C254A"/><stop offset="1" stop-color="#0E113C"/></linearGradient><path fill="url(#a)" d="M293.453 377.809l-95.065-.221 47.741-82.221 2.531 1.466-45.206 77.84 90.008.211-.009 2.925z"/><linearGradient id="b" gradientUnits="userSpaceOnUse" x1="64.201" y1="649.357" x2="103.691" y2="649.357" gradientTransform="matrix(2.411 0 0 2.411 -1.468 -1150.437)"><stop offset=".002" stop-color="#00B0A9"/><stop offset=".276" stop-color="#00AEA7"/><stop offset=".434" stop-color="#01A5A2"/><stop offset=".562" stop-color="#029798"/><stop offset=".675" stop-color="#04838A"/><stop offset=".777" stop-color="#066A79"/><stop offset=".872" stop-color="#094A63"/><stop offset=".959" stop-color="#0C254A"/><stop offset="1" stop-color="#0E113C"/></linearGradient><path fill="url(#b)" d="M245.999 457.118l-45.076-78.065-45.069 78.065-2.532-1.462 47.601-82.45 47.607 82.45-2.531 1.462z"/><linearGradient id="c" gradientUnits="userSpaceOnUse" x1="45.508" y1="616.676" x2="84.995" y2="616.676" gradientTransform="matrix(2.411 0 0 2.411 -1.468 -1150.437)"><stop offset=".002" stop-color="#00B0A9"/><stop offset=".276" stop-color="#00AEA7"/><stop offset=".434" stop-color="#01A5A2"/><stop offset=".562" stop-color="#029798"/><stop offset=".675" stop-color="#04838A"/><stop offset=".777" stop-color="#066A79"/><stop offset=".872" stop-color="#094A63"/><stop offset=".959" stop-color="#0C254A"/><stop offset="1" stop-color="#0E113C"/></linearGradient><path fill="url(#c)" d="M203.455 377.595l-95.204-.007v-2.92h90.141l-45.069-78.065 2.532-1.462 47.6 82.454z"/><circle fill="#fff" cx="432.536" cy="456.384" r="5.21"/><circle fill="#fff" cx="339.863" cy="456.384" r="5.21"/><linearGradient id="d" gradientUnits="userSpaceOnUse" x1="159.741" y1="616.767" x2="199.17" y2="616.767" gradientTransform="matrix(2.411 0 0 2.411 -1.468 -1150.437)"><stop offset=".002" stop-color="#00B0A9"/><stop offset=".276" stop-color="#00AEA7"/><stop offset=".434" stop-color="#01A5A2"/><stop offset=".562" stop-color="#029798"/><stop offset=".675" stop-color="#04838A"/><stop offset=".777" stop-color="#066A79"/><stop offset=".872" stop-color="#094A63"/><stop offset=".959" stop-color="#0C254A"/><stop offset="1" stop-color="#0E113C"/></linearGradient><path fill="url(#d)" d="M478.73 377.809l-95.063-.221 47.741-82.221 2.526 1.466-45.201 77.84 89.999.211-.002 2.925z"/><linearGradient id="e" gradientUnits="userSpaceOnUse" x1="141.047" y1="649.357" x2="180.537" y2="649.357" gradientTransform="matrix(2.411 0 0 2.411 -1.468 -1150.437)"><stop offset=".002" stop-color="#00B0A9"/><stop offset=".276" stop-color="#00AEA7"/><stop offset=".434" stop-color="#01A5A2"/><stop offset=".562" stop-color="#029798"/><stop offset=".675" stop-color="#04838A"/><stop offset=".777" stop-color="#066A79"/><stop offset=".872" stop-color="#094A63"/><stop offset=".959" stop-color="#0C254A"/><stop offset="1" stop-color="#0E113C"/></linearGradient><path fill="url(#e)" d="M431.275 457.118l-45.073-78.065-45.073 78.065-2.532-1.462 47.604-82.45 47.605 82.45-2.531 1.462z"/><linearGradient id="f" gradientUnits="userSpaceOnUse" x1="136.965" y1="642.058" x2="156.708" y2="607.861" gradientTransform="matrix(2.411 0 0 2.411 -1.468 -1150.437)"><stop offset=".002" stop-color="#00B0A9"/><stop offset=".276" stop-color="#00AEA7"/><stop offset=".434" stop-color="#01A5A2"/><stop offset=".562" stop-color="#029798"/><stop offset=".675" stop-color="#04838A"/><stop offset=".777" stop-color="#066A79"/><stop offset=".872" stop-color="#094A63"/><stop offset=".959" stop-color="#0C254A"/><stop offset="1" stop-color="#0E113C"/></linearGradient><path fill="url(#f)" d="M388.73 377.595l-95.204-.007v-2.92h90.143l-45.071-78.065 2.532-1.462 47.6 82.454z"/><circle fill="#fff" cx="293.526" cy="536.865" r="5.21"/><linearGradient id="g" gradientUnits="userSpaceOnUse" x1="159.741" y1="683.432" x2="199.17" y2="683.432" gradientTransform="matrix(2.411 0 0 2.411 -1.468 -1150.437)"><stop offset=".002" stop-color="#00B0A9"/><stop offset=".276" stop-color="#00AEA7"/><stop offset=".434" stop-color="#01A5A2"/><stop offset=".562" stop-color="#029798"/><stop offset=".675" stop-color="#04838A"/><stop offset=".777" stop-color="#066A79"/><stop offset=".872" stop-color="#094A63"/><stop offset=".959" stop-color="#0C254A"/><stop offset="1" stop-color="#0E113C"/></linearGradient><path fill="url(#g)" d="M478.73 538.534l-95.063-.217 47.741-82.219 2.526 1.467-45.201 77.845 89.999.205-.002 2.919z"/><linearGradient id="h" gradientUnits="userSpaceOnUse" x1="141.047" y1="716.024" x2="180.537" y2="716.024" gradientTransform="matrix(2.411 0 0 2.411 -1.468 -1150.437)"><stop offset=".002" stop-color="#00B0A9"/><stop offset=".276" stop-color="#00AEA7"/><stop offset=".434" stop-color="#01A5A2"/><stop offset=".562" stop-color="#029798"/><stop offset=".675" stop-color="#04838A"/><stop offset=".777" stop-color="#066A79"/><stop offset=".872" stop-color="#094A63"/><stop offset=".959" stop-color="#0C254A"/><stop offset="1" stop-color="#0E113C"/></linearGradient><path fill="url(#h)" d="M431.275 617.85l-45.073-78.066-45.073 78.064-2.532-1.469 47.604-82.435 47.605 82.436-2.531 1.47z"/><linearGradient id="i" gradientUnits="userSpaceOnUse" x1="122.353" y1="683.341" x2="161.841" y2="683.341" gradientTransform="matrix(2.411 0 0 2.411 -1.468 -1150.437)"><stop offset=".002" stop-color="#00B0A9"/><stop offset=".276" stop-color="#00AEA7"/><stop offset=".434" stop-color="#01A5A2"/><stop offset=".562" stop-color="#029798"/><stop offset=".675" stop-color="#04838A"/><stop offset=".777" stop-color="#066A79"/><stop offset=".872" stop-color="#094A63"/><stop offset=".959" stop-color="#0C254A"/><stop offset="1" stop-color="#0E113C"/></linearGradient><path fill="url(#i)" d="M388.73 538.323l-95.204-.007v-2.92l90.143.007-45.071-78.069 2.532-1.462 47.6 82.451z"/><linearGradient id="j" gradientUnits="userSpaceOnUse" x1="82.922" y1="683.189" x2="141.574" y2="683.189" gradientTransform="matrix(2.411 0 0 2.411 -1.468 -1150.437)"><stop offset=".002" stop-color="#00B0A9"/><stop offset=".276" stop-color="#00AEA7"/><stop offset=".434" stop-color="#01A5A2"/><stop offset=".562" stop-color="#029798"/><stop offset=".675" stop-color="#04838A"/><stop offset=".777" stop-color="#066A79"/><stop offset=".872" stop-color="#094A63"/><stop offset=".959" stop-color="#0C254A"/><stop offset="1" stop-color="#0E113C"/></linearGradient><path fill="url(#j)" d="M293.524 538.323l-95.066-.229 48.161-82.954h93.248v2.929h-91.562l-44.779 77.11 90.005.225-.007 2.919z"/><linearGradient id="k" gradientUnits="userSpaceOnUse" x1="64.231" y1="715.93" x2="103.719" y2="715.93" gradientTransform="matrix(2.411 0 0 2.411 -1.468 -1150.437)"><stop offset=".002" stop-color="#00B0A9"/><stop offset=".276" stop-color="#00AEA7"/><stop offset=".434" stop-color="#01A5A2"/><stop offset=".562" stop-color="#029798"/><stop offset=".675" stop-color="#04838A"/><stop offset=".777" stop-color="#066A79"/><stop offset=".872" stop-color="#094A63"/><stop offset=".959" stop-color="#0C254A"/><stop offset="1" stop-color="#0E113C"/></linearGradient><path fill="url(#k)" d="M246.069 617.625l-45.076-78.065-45.071 78.065-2.53-1.46 47.6-82.452 47.607 82.45-2.53 1.462z"/><linearGradient id="l" gradientUnits="userSpaceOnUse" x1="45.536" y1="683.25" x2="85.024" y2="683.25" gradientTransform="matrix(2.411 0 0 2.411 -1.468 -1150.437)"><stop offset=".002" stop-color="#00B0A9"/><stop offset=".276" stop-color="#00AEA7"/><stop offset=".434" stop-color="#01A5A2"/><stop offset=".562" stop-color="#029798"/><stop offset=".675" stop-color="#04838A"/><stop offset=".777" stop-color="#066A79"/><stop offset=".872" stop-color="#094A63"/><stop offset=".959" stop-color="#0C254A"/><stop offset="1" stop-color="#0E113C"/></linearGradient><path fill="url(#l)" d="M203.526 538.099h-95.206v-2.923h90.143l-45.071-78.057 2.53-1.462 47.604 82.442z"/><circle fill="#fff" cx="200.923" cy="376.134" r="8.913"/><circle fill="#fff" cx="108.25" cy="376.134" r="5.213"/><circle fill="#fff" cx="247.263" cy="295.878" r="5.21"/><circle fill="#fff" cx="154.588" cy="295.878" r="5.21"/><circle fill="#fff" cx="386.201" cy="376.134" r="8.913"/><circle fill="#fff" cx="478.734" cy="376.134" r="5.213"/><circle fill="#fff" cx="386.201" cy="536.865" r="8.913"/><circle fill="#fff" cx="432.536" cy="617.114" r="5.21"/><circle fill="#fff" cx="478.734" cy="536.865" r="5.213"/><circle fill="#fff" cx="293.526" cy="376.134" r="5.21"/><circle fill="#fff" cx="432.541" cy="456.606" r="5.213"/><circle fill="#fff" cx="339.863" cy="456.606" r="5.21"/><circle fill="#fff" cx="339.863" cy="617.114" r="5.21"/><circle fill="#fff" cx="432.541" cy="295.878" r="5.213"/><circle fill="#fff" cx="339.863" cy="295.878" r="5.21"/><path fill="#fff" d="M209.909 536.634c0 4.923-3.995 8.922-8.916 8.922-4.927 0-8.912-3.998-8.912-8.922 0-4.913 3.986-8.903 8.912-8.903 4.923 0 8.916 3.989 8.916 8.903z"/><circle fill="#fff" cx="247.33" cy="616.892" r="5.21"/><circle fill="#fff" cx="293.526" cy="536.634" r="5.21"/><circle fill="#fff" cx="108.32" cy="536.634" r="5.213"/><circle fill="#fff" cx="247.333" cy="456.384" r="5.21"/><circle fill="#fff" cx="154.658" cy="456.384" r="5.213"/><circle fill="#fff" cx="154.658" cy="616.892" r="5.213"/></svg>