<svg xmlns="http://www.w3.org/2000/svg" viewBox="-4 35.531 618.747 714.552" enable-background="new -4 35.531 618.747 714.552"><path stroke="#fff" stroke-width="8" stroke-miterlimit="10" d="M304.51 744.956l.86.502 304.48-175.815.898-.502V216.488L306.226 40.722l-.854-.53L.854 215.99l-.854.497v352.657l304.51 175.812z" fill="none"/><path fill="#fff" d="M305.372 455.086l-54.997-31.755v-63.516l55.017-31.755.392.245 54.592 31.51v63.526l-.397.22-54.608 31.526zm-53.48-32.636l53.478 30.88 53.478-30.88v-61.757l-53.485-30.866-53.473 30.866.002 61.757zM136.32 276.738c5.23 0 9.465 4.235 9.465 9.462 0 5.234-4.235 9.464-9.464 9.464-5.22 0-9.463-4.228-9.463-9.464.002-5.227 4.242-9.462 9.464-9.462zM474.43 276.738c5.22 0 9.456 4.235 9.456 9.462 0 5.234-4.235 9.464-9.457 9.464-5.23 0-9.47-4.228-9.47-9.464-.003-5.227 4.24-9.462 9.47-9.462z"/><circle fill="#fff" cx="305.372" cy="391.574" r="5.533"/><circle fill="#fff" cx="474.422" cy="503.39" r="5.533"/><path fill="#fff" d="M304.617 286.2h1.516v217.19h-1.516zM136.313 502.634h338.11v1.516h-338.11zM136.313 285.44h338.11v1.515h-338.11z"/><circle fill="#fff" cx="399.095" cy="577.213" r="5.533"/><path fill="#fff" d="M305 502.917l.934 1.192-93.903 73.618-.933-1.192zM305.853 502.817l93.732 73.83-.937 1.19-93.73-73.83z"/><circle fill="#fff" cx="399.095" cy="429.567" r="5.533"/><circle fill="#fff" cx="492.826" cy="577.213" r="5.533"/><circle fill="#fff" cx="492.826" cy="429.567" r="5.533"/><circle fill="#fff" cx="136.321" cy="503.39" r="5.533"/><circle fill="#fff" cx="117.919" cy="577.213" r="5.533"/><circle fill="#fff" cx="117.919" cy="429.567" r="5.533"/><circle fill="#fff" cx="211.649" cy="577.213" r="5.533"/><circle fill="#fff" cx="211.649" cy="429.567" r="5.533"/><path fill="#fff" d="M212.135 428.964l93.728 73.816-.937 1.19-93.727-73.816zM211.267 502.92l.934 1.19-93.897 73.615-.934-1.19zM118.376 428.984l93.734 73.832-.937 1.19-93.733-73.833zM117.924 350.56c5.222 0 9.457 4.236 9.457 9.465 0 5.234-4.234 9.464-9.456 9.464-5.23 0-9.47-4.23-9.47-9.465 0-5.23 4.243-9.464 9.47-9.464zM117.924 202.915c5.222 0 9.457 4.235 9.457 9.464 0 5.233-4.234 9.46-9.456 9.46-5.23 0-9.47-4.227-9.47-9.46 0-5.232 4.243-9.465 9.47-9.465zM211.288 285.742l.933 1.192-93.93 73.566-.934-1.192zM118.38 211.788l93.734 73.83-.935 1.188-93.734-73.83zM398.722 429.095l.934 1.192L305.76 503.9l-.933-1.192zM399.59 502.782l93.728 73.816-.94 1.193-93.728-73.814zM492.33 428.898l.94 1.192-93.61 73.974-.943-1.192zM399.564 285.62l93.74 73.836-.936 1.19-93.74-73.838zM492.205 211.615l.94 1.186-93.464 74.15-.94-1.185zM211.65 350.56c5.228 0 9.463 4.236 9.463 9.465 0 5.234-4.235 9.464-9.464 9.464-5.223 0-9.465-4.23-9.465-9.465 0-5.23 4.243-9.464 9.464-9.464zM305.017 285.74l.934 1.192-93.938 73.57-.933-1.19zM305.85 285.592l93.705 73.82-.935 1.187-93.706-73.82zM211.65 221.84c5.228 0 9.463-4.236 9.463-9.47 0-5.23-4.235-9.457-9.464-9.457-5.223 0-9.465 4.228-9.465 9.457 0 5.237 4.243 9.47 9.464 9.47zM399.095 350.56c5.23 0 9.464 4.236 9.464 9.465 0 5.234-4.236 9.464-9.465 9.464-5.222 0-9.464-4.23-9.464-9.465.003-5.23 4.244-9.464 9.465-9.464zM399.095 202.915c5.23 0 9.464 4.235 9.464 9.464 0 5.233-4.236 9.46-9.465 9.46-5.222 0-9.464-4.227-9.464-9.46.003-5.232 4.244-9.465 9.465-9.465zM492.826 350.56c5.227 0 9.464 4.236 9.464 9.465 0 5.234-4.238 9.464-9.464 9.464-5.222 0-9.464-4.23-9.464-9.465.002-5.23 4.242-9.464 9.464-9.464zM492.826 221.84c5.227 0 9.464-4.236 9.464-9.47 0-5.23-4.238-9.457-9.464-9.457-5.222 0-9.464 4.228-9.464 9.457.002 5.237 4.242 9.47 9.464 9.47zM212.125 211.774l93.727 73.815-.935 1.186-93.727-73.815zM398.618 211.806l.935 1.187-93.75 73.79-.935-1.187zM359.223 359.588l.762 1.32-108.468 62.703-.763-1.32zM251.666 359.49l108.146 62.808-.76 1.31L250.903 360.8z"/></svg>