<svg xmlns="http://www.w3.org/2000/svg" width="595.598" height="687.823" viewBox="-4.156 112.568 595.598 687.823" enable-background="new -4.156 112.568 595.598 687.823"><path stroke="#231F20" stroke-width="8" stroke-miterlimit="10" d="M292.807 795.281l.831.485 292.94-169.149.864-.482v-339.291l-292.978-169.108-.83-.511-292.974 169.134-.816.486v339.289l292.965 169.146-.002.001z" fill="none"/><linearGradient id="a" gradientUnits="userSpaceOnUse" x1="121.636" y1="129.275" x2="122.847" y2="129.275" gradientTransform="matrix(2.411 0 0 -2.411 -1.081 770.077)"><stop offset=".002" stop-color="#00B0A9"/><stop offset=".276" stop-color="#00AEA7"/><stop offset=".434" stop-color="#01A5A2"/><stop offset=".562" stop-color="#029798"/><stop offset=".675" stop-color="#04838A"/><stop offset=".777" stop-color="#066A79"/><stop offset=".872" stop-color="#094A63"/><stop offset=".959" stop-color="#0C254A"/><stop offset="1" stop-color="#0E113C"/></linearGradient><path fill="url(#a)" d="M292.183 353.917h2.92v208.954h-2.92v-208.954z"/><linearGradient id="b" gradientUnits="userSpaceOnUse" x1="84.466" y1="71.211" x2="122.615" y2="71.211" gradientTransform="matrix(2.411 0 0 -2.411 -1.081 770.077)"><stop offset="0" stop-color="#0E113C"/><stop offset=".041" stop-color="#0C254A"/><stop offset=".128" stop-color="#094A63"/><stop offset=".223" stop-color="#066A79"/><stop offset=".325" stop-color="#04838A"/><stop offset=".438" stop-color="#029798"/><stop offset=".566" stop-color="#01A5A2"/><stop offset=".724" stop-color="#00AEA7"/><stop offset=".998" stop-color="#00B0A9"/></linearGradient><path fill="url(#b)" d="M204.363 635.046l-1.796-2.293 90.161-71.025 1.815 2.292-90.18 71.026z"/><linearGradient id="c" gradientUnits="userSpaceOnUse" x1="121.862" y1="71.211" x2="160.016" y2="71.211" gradientTransform="matrix(2.411 0 0 -2.411 -1.081 770.077)"><stop offset=".002" stop-color="#00B0A9"/><stop offset=".173" stop-color="#039395"/><stop offset=".743" stop-color="#0B3655"/><stop offset="1" stop-color="#0E113C"/></linearGradient><path fill="url(#c)" d="M382.908 635.046l-90.18-71.026 1.815-2.292 90.175 71.024-1.81 2.294z"/><path fill="#231F20" d="M113.294 628.576c2.932 0 5.317 2.385 5.317 5.326 0 2.944-2.385 5.32-5.317 5.32-2.946 0-5.33-2.376-5.33-5.32 0-2.941 2.384-5.326 5.33-5.326zm0-131.405c2.932 0 5.317-2.382 5.317-5.322 0-2.944-2.385-5.321-5.317-5.321-2.946 0-5.33 2.376-5.33 5.321 0 2.941 2.384 5.323 5.33 5.322zm90.176 131.405c2.932 0 5.317 2.385 5.317 5.326 0 2.944-2.385 5.32-5.317 5.32-2.946 0-5.33-2.376-5.33-5.32 0-2.941 2.387-5.326 5.33-5.326z"/><linearGradient id="d" gradientUnits="userSpaceOnUse" x1="84.467" y1="100.671" x2="122.614" y2="100.671" gradientTransform="matrix(2.411 0 0 -2.411 -1.081 770.077)"><stop offset="0" stop-color="#0E113C"/><stop offset=".041" stop-color="#0C254A"/><stop offset=".128" stop-color="#094A63"/><stop offset=".223" stop-color="#066A79"/><stop offset=".325" stop-color="#04838A"/><stop offset=".438" stop-color="#029798"/><stop offset=".566" stop-color="#01A5A2"/><stop offset=".724" stop-color="#00AEA7"/><stop offset=".998" stop-color="#00B0A9"/></linearGradient><path fill="url(#d)" d="M292.729 564.019l-90.161-71.023 1.796-2.295 90.178 71.026-1.813 2.292z"/><linearGradient id="e" gradientUnits="userSpaceOnUse" x1="47.063" y1="71.211" x2="85.212" y2="71.211" gradientTransform="matrix(2.411 0 0 -2.411 -1.081 770.077)"><stop offset="0" stop-color="#0E113C"/><stop offset=".041" stop-color="#0C254A"/><stop offset=".128" stop-color="#094A63"/><stop offset=".223" stop-color="#066A79"/><stop offset=".325" stop-color="#04838A"/><stop offset=".438" stop-color="#029798"/><stop offset=".566" stop-color="#01A5A2"/><stop offset=".724" stop-color="#00AEA7"/><stop offset=".998" stop-color="#00B0A9"/></linearGradient><path fill="url(#e)" d="M114.199 635.046l-1.811-2.293 90.18-71.025 1.796 2.292-90.165 71.026z"/><linearGradient id="f" gradientUnits="userSpaceOnUse" x1="47.063" y1="100.671" x2="85.211" y2="100.671" gradientTransform="matrix(2.411 0 0 -2.411 -1.081 770.077)"><stop offset="0" stop-color="#0E113C"/><stop offset=".041" stop-color="#0C254A"/><stop offset=".128" stop-color="#094A63"/><stop offset=".223" stop-color="#066A79"/><stop offset=".325" stop-color="#04838A"/><stop offset=".438" stop-color="#029798"/><stop offset=".566" stop-color="#01A5A2"/><stop offset=".724" stop-color="#00AEA7"/><stop offset=".998" stop-color="#00B0A9"/></linearGradient><path fill="url(#f)" d="M202.567 564.019l-90.18-71.023 1.812-2.295 90.164 71.026-1.796 2.292z"/><linearGradient id="g" gradientUnits="userSpaceOnUse" x1="47.063" y1="157.88" x2="85.212" y2="157.88" gradientTransform="matrix(2.411 0 0 -2.411 -1.081 770.077)"><stop offset="0" stop-color="#0E113C"/><stop offset=".041" stop-color="#0C254A"/><stop offset=".128" stop-color="#094A63"/><stop offset=".223" stop-color="#066A79"/><stop offset=".325" stop-color="#04838A"/><stop offset=".438" stop-color="#029798"/><stop offset=".566" stop-color="#01A5A2"/><stop offset=".724" stop-color="#00AEA7"/><stop offset=".998" stop-color="#00B0A9"/></linearGradient><path fill="url(#g)" d="M114.199 426.086l-1.811-2.291 90.18-71.024 1.796 2.289-90.165 71.026z"/><linearGradient id="h" gradientUnits="userSpaceOnUse" x1="47.063" y1="187.339" x2="85.211" y2="187.339" gradientTransform="matrix(2.411 0 0 -2.411 -1.081 770.077)"><stop offset="0" stop-color="#0E113C"/><stop offset=".041" stop-color="#0C254A"/><stop offset=".128" stop-color="#094A63"/><stop offset=".223" stop-color="#066A79"/><stop offset=".325" stop-color="#04838A"/><stop offset=".438" stop-color="#029798"/><stop offset=".566" stop-color="#01A5A2"/><stop offset=".724" stop-color="#00AEA7"/><stop offset=".998" stop-color="#00B0A9"/></linearGradient><path fill="url(#h)" d="M202.567 355.059l-90.18-71.026 1.812-2.29 90.164 71.028-1.796 2.288z"/><linearGradient id="i" gradientUnits="userSpaceOnUse" x1="121.862" y1="100.671" x2="160.016" y2="100.671" gradientTransform="matrix(2.411 0 0 -2.411 -1.081 770.077)"><stop offset=".002" stop-color="#00B0A9"/><stop offset=".173" stop-color="#039395"/><stop offset=".743" stop-color="#0B3655"/><stop offset="1" stop-color="#0E113C"/></linearGradient><path fill="url(#i)" d="M294.542 564.019l-1.813-2.292 90.18-71.027 1.809 2.295-90.176 71.024z"/><linearGradient id="j" gradientUnits="userSpaceOnUse" x1="159.266" y1="71.211" x2="197.415" y2="71.211" gradientTransform="matrix(2.411 0 0 -2.411 -1.081 770.077)"><stop offset=".002" stop-color="#00B0A9"/><stop offset=".173" stop-color="#039395"/><stop offset=".743" stop-color="#0B3655"/><stop offset="1" stop-color="#0E113C"/></linearGradient><path fill="url(#j)" d="M473.089 635.046l-90.18-71.026 1.809-2.292 90.168 71.024-1.797 2.294z"/><linearGradient id="k" gradientUnits="userSpaceOnUse" x1="159.265" y1="100.671" x2="197.415" y2="100.671" gradientTransform="matrix(2.411 0 0 -2.411 -1.081 770.077)"><stop offset=".002" stop-color="#00B0A9"/><stop offset=".173" stop-color="#039395"/><stop offset=".743" stop-color="#0B3655"/><stop offset="1" stop-color="#0E113C"/></linearGradient><path fill="url(#k)" d="M384.718 564.019l-1.81-2.292 90.18-71.027 1.798 2.295-90.168 71.024z"/><linearGradient id="l" gradientUnits="userSpaceOnUse" x1="159.266" y1="157.88" x2="197.415" y2="157.88" gradientTransform="matrix(2.411 0 0 -2.411 -1.081 770.077)"><stop offset=".002" stop-color="#00B0A9"/><stop offset=".173" stop-color="#039395"/><stop offset=".743" stop-color="#0B3655"/><stop offset="1" stop-color="#0E113C"/></linearGradient><path fill="url(#l)" d="M473.089 426.086l-90.18-71.026 1.809-2.289 90.168 71.024-1.797 2.291z"/><linearGradient id="m" gradientUnits="userSpaceOnUse" x1="159.265" y1="187.34" x2="197.415" y2="187.34" gradientTransform="matrix(2.411 0 0 -2.411 -1.081 770.077)"><stop offset=".002" stop-color="#00B0A9"/><stop offset=".173" stop-color="#039395"/><stop offset=".743" stop-color="#0B3655"/><stop offset="1" stop-color="#0E113C"/></linearGradient><path fill="url(#m)" d="M384.718 355.059l-1.81-2.289 90.18-71.028 1.798 2.291-90.168 71.026z"/><linearGradient id="n" gradientUnits="userSpaceOnUse" x1="84.466" y1="157.88" x2="122.615" y2="157.88" gradientTransform="matrix(2.411 0 0 -2.411 -1.081 770.077)"><stop offset="0" stop-color="#0E113C"/><stop offset=".041" stop-color="#0C254A"/><stop offset=".128" stop-color="#094A63"/><stop offset=".223" stop-color="#066A79"/><stop offset=".325" stop-color="#04838A"/><stop offset=".438" stop-color="#029798"/><stop offset=".566" stop-color="#01A5A2"/><stop offset=".724" stop-color="#00AEA7"/><stop offset=".998" stop-color="#00B0A9"/></linearGradient><path fill="url(#n)" d="M204.363 426.086l-1.796-2.291 90.161-71.024 1.815 2.289-90.18 71.026z"/><linearGradient id="o" gradientUnits="userSpaceOnUse" x1="121.862" y1="157.88" x2="160.016" y2="157.88" gradientTransform="matrix(2.411 0 0 -2.411 -1.081 770.077)"><stop offset=".002" stop-color="#00B0A9"/><stop offset=".173" stop-color="#039395"/><stop offset=".743" stop-color="#0B3655"/><stop offset="1" stop-color="#0E113C"/></linearGradient><path fill="url(#o)" d="M382.908 426.086l-90.18-71.026 1.815-2.289 90.175 71.024-1.81 2.291z"/><path fill="#231F20" d="M383.814 415.838c5.026 0 9.104 4.075 9.104 9.104 0 5.036-4.08 9.106-9.104 9.106-5.023 0-9.103-4.07-9.103-9.106 0-5.032 4.079-9.104 9.104-9.104h-.001zm90.18 0c5.023 0 9.104 4.075 9.104 9.104 0 5.036-4.082 9.106-9.104 9.106-5.025 0-9.104-4.07-9.104-9.106-.002-5.032 4.079-9.104 9.104-9.104zm-90.18 81.333c2.933 0 5.318-2.382 5.318-5.322 0-2.944-2.385-5.321-5.317-5.321-2.945 0-5.332 2.376-5.332 5.321 0 2.942 2.389 5.323 5.333 5.323l-.002-.001z"/><linearGradient id="p" gradientUnits="userSpaceOnUse" x1="84.467" y1="187.339" x2="122.614" y2="187.339" gradientTransform="matrix(2.411 0 0 -2.411 -1.081 770.077)"><stop offset="0" stop-color="#0E113C"/><stop offset=".041" stop-color="#0C254A"/><stop offset=".128" stop-color="#094A63"/><stop offset=".223" stop-color="#066A79"/><stop offset=".325" stop-color="#04838A"/><stop offset=".438" stop-color="#029798"/><stop offset=".566" stop-color="#01A5A2"/><stop offset=".724" stop-color="#00AEA7"/><stop offset=".998" stop-color="#00B0A9"/></linearGradient><path fill="url(#p)" d="M292.729 355.059l-90.161-71.026 1.796-2.29 90.178 71.028-1.813 2.288z"/><circle fill="#231F20" cx="473.994" cy="491.848" r="5.323"/><linearGradient id="q" gradientUnits="userSpaceOnUse" x1="121.862" y1="187.34" x2="160.016" y2="187.34" gradientTransform="matrix(2.411 0 0 -2.411 -1.081 770.077)"><stop offset=".002" stop-color="#00B0A9"/><stop offset=".173" stop-color="#039395"/><stop offset=".743" stop-color="#0B3655"/><stop offset="1" stop-color="#0E113C"/></linearGradient><path fill="url(#q)" d="M294.542 355.059l-1.813-2.289 90.18-71.028 1.809 2.291-90.176 71.026z"/><linearGradient id="r" gradientUnits="userSpaceOnUse" x1="100.295" y1="130.561" x2="144.187" y2="130.561" gradientTransform="matrix(2.411 0 0 -2.411 -1.081 770.077)"><stop offset="0" stop-color="#0E113C"/><stop offset=".041" stop-color="#0C254A"/><stop offset=".128" stop-color="#094A63"/><stop offset=".223" stop-color="#066A79"/><stop offset=".325" stop-color="#04838A"/><stop offset=".438" stop-color="#029798"/><stop offset=".566" stop-color="#01A5A2"/><stop offset=".724" stop-color="#00AEA7"/><stop offset=".998" stop-color="#00B0A9"/></linearGradient><path fill="url(#r)" d="M242.186 486.691l-1.455-2.532 104.36-60.264 1.464 2.533-104.369 60.263z"/><linearGradient id="s" gradientUnits="userSpaceOnUse" x1="100.353" y1="130.561" x2="144.124" y2="130.561" gradientTransform="matrix(2.411 0 0 -2.411 -1.081 770.077)"><stop offset="0" stop-color="#0E113C"/><stop offset=".041" stop-color="#0C254A"/><stop offset=".128" stop-color="#094A63"/><stop offset=".223" stop-color="#066A79"/><stop offset=".325" stop-color="#04838A"/><stop offset=".438" stop-color="#029798"/><stop offset=".566" stop-color="#01A5A2"/><stop offset=".724" stop-color="#00AEA7"/><stop offset=".998" stop-color="#00B0A9"/></linearGradient><path fill="url(#s)" d="M344.937 486.775l-104.067-60.437 1.469-2.524 104.064 60.437-1.466 2.524z"/><path fill="#231F20" d="M203.47 497.171c2.932 0 5.317-2.382 5.317-5.322 0-2.944-2.385-5.321-5.317-5.321-2.946 0-5.33 2.376-5.33 5.321 0 2.941 2.387 5.323 5.33 5.322zm180.344 131.405c2.933 0 5.318 2.385 5.318 5.326 0 2.944-2.385 5.32-5.317 5.32-2.945 0-5.332-2.376-5.332-5.32 0-2.942 2.389-5.326 5.333-5.326h-.002z"/><linearGradient id="t" gradientUnits="userSpaceOnUse" x1="54.779" y1="85.941" x2="189.697" y2="85.941" gradientTransform="matrix(2.411 0 0 -2.411 -1.081 770.077)"><stop offset=".002" stop-color="#00B0A9"/><stop offset=".276" stop-color="#00AEA7"/><stop offset=".434" stop-color="#01A5A2"/><stop offset=".562" stop-color="#029798"/><stop offset=".675" stop-color="#04838A"/><stop offset=".777" stop-color="#066A79"/><stop offset=".872" stop-color="#094A63"/><stop offset=".959" stop-color="#0C254A"/><stop offset="1" stop-color="#0E113C"/></linearGradient><path fill="url(#t)" d="M130.992 561.413h325.286v2.922h-325.286v-2.922z"/><circle fill="#231F20" cx="473.994" cy="633.9" r="5.323"/><path fill="#231F20" d="M113.294 415.838c5.025 0 9.104 4.075 9.104 9.104 0 5.036-4.082 9.106-9.104 9.106-5.025 0-9.104-4.07-9.104-9.106-.002-5.032 4.079-9.104 9.104-9.104zm0-142.051c5.025 0 9.104 4.077 9.104 9.106 0 5.036-4.082 9.104-9.104 9.104-5.025 0-9.104-4.07-9.104-9.104-.002-5.032 4.079-9.106 9.104-9.106zm180.341 176.186c2.946 0 5.328 2.385 5.328 5.323 0 2.943-2.385 5.322-5.328 5.322-2.934 0-5.319-2.38-5.319-5.323.003-2.939 2.387-5.324 5.319-5.324v.002zm-90.165-34.135c5.023 0 9.104 4.075 9.104 9.104 0 5.036-4.08 9.106-9.104 9.106s-9.106-4.07-9.106-9.106c.003-5.032 4.085-9.104 9.106-9.104z"/><linearGradient id="u" gradientUnits="userSpaceOnUse" x1="99.922" y1="143.452" x2="144.426" y2="117.758" gradientTransform="matrix(2.411 0 0 -2.411 -1.081 770.077)"><stop offset=".002" stop-color="#00B0A9"/><stop offset=".276" stop-color="#00AEA7"/><stop offset=".434" stop-color="#01A5A2"/><stop offset=".562" stop-color="#029798"/><stop offset=".675" stop-color="#04838A"/><stop offset=".777" stop-color="#066A79"/><stop offset=".872" stop-color="#094A63"/><stop offset=".959" stop-color="#0C254A"/><stop offset="1" stop-color="#0E113C"/></linearGradient><path fill="url(#u)" d="M293.635 517.246l-53.645-30.976v-61.952l53.684-30.986.752.476 52.854 30.509v61.964l-.753.421-52.892 30.544zm-50.71-32.666l50.713 29.288 50.728-29.289v-58.573l-50.728-29.279-50.713 29.279v58.574z"/><path fill="#231F20" d="M203.47 291.997c5.023 0 9.104-4.072 9.104-9.111 0-5.032-4.08-9.099-9.104-9.099s-9.106 4.07-9.106 9.099c.003 5.037 4.085 9.111 9.106 9.111zm180.344-18.21c5.026 0 9.104 4.077 9.104 9.106 0 5.036-4.08 9.104-9.104 9.104-5.023 0-9.103-4.07-9.103-9.104 0-5.032 4.079-9.106 9.104-9.106h-.001z"/><linearGradient id="v" gradientUnits="userSpaceOnUse" x1="54.779" y1="172.611" x2="189.697" y2="172.611" gradientTransform="matrix(2.411 0 0 -2.411 -1.081 770.077)"><stop offset=".002" stop-color="#00B0A9"/><stop offset=".276" stop-color="#00AEA7"/><stop offset=".434" stop-color="#01A5A2"/><stop offset=".562" stop-color="#029798"/><stop offset=".675" stop-color="#04838A"/><stop offset=".777" stop-color="#066A79"/><stop offset=".872" stop-color="#094A63"/><stop offset=".959" stop-color="#0C254A"/><stop offset="1" stop-color="#0E113C"/></linearGradient><path fill="url(#v)" d="M130.992 352.45h325.286v2.925h-325.286v-2.925z"/><path fill="#231F20" d="M473.994 291.997c5.023 0 9.104-4.072 9.104-9.111 0-5.032-4.082-9.099-9.104-9.099-5.025 0-9.104 4.07-9.104 9.099-.002 5.037 4.079 9.111 9.104 9.111zm-17.714 265.556c2.946 0 5.333 2.382 5.333 5.32 0 2.948-2.387 5.324-5.333 5.324-2.932 0-5.317-2.375-5.317-5.323 0-2.938 2.385-5.32 5.317-5.321zm-325.288 0c2.946 0 5.327 2.382 5.327 5.32 0 2.948-2.385 5.324-5.328 5.324-2.933 0-5.318-2.375-5.318-5.323 0-2.939 2.385-5.321 5.317-5.321h.002zm0-212.741c5.035 0 9.103 4.072 9.103 9.104 0 5.036-4.067 9.104-9.104 9.104-5.023 0-9.104-4.068-9.104-9.104 0-5.032 4.084-9.104 9.104-9.104h.001zm325.302 0c5.025 0 9.092 4.072 9.092 9.104 0 5.036-4.067 9.104-9.092 9.104-5.036 0-9.119-4.068-9.119-9.104 0-5.032 4.082-9.104 9.119-9.104z"/></svg>