<svg xmlns="http://www.w3.org/2000/svg" width="16.034" height="18.52" viewBox="-0.213 35.517 16.034 18.52" enable-background="new -0.213 35.517 16.034 18.52"><path fill="#fff" stroke="#fff" stroke-width=".425" stroke-miterlimit="10" d="M9.166 44.779c0 .751-.608 1.36-1.362 1.36-.749 0-1.362-.608-1.362-1.36 0-.756.613-1.362 1.362-1.362.754 0 1.362.606 1.362 1.362zm-1.339-9.003l-.022-.013-7.781 4.494-.024.013v9.014l7.783 4.492.021.013 7.783-4.491.022-.014v-9.015l-7.782-4.493zm-7.163 4.876l7.141-4.124 7.139 4.124v8.245l-7.139 4.121-7.141-4.121v-8.245z"/></svg>