<svg xmlns="http://www.w3.org/2000/svg" viewBox="-4.146 35.533 619.829 715.821" enable-background="new -4.146 35.533 619.829 715.821"><path stroke="#fff" stroke-width="8" stroke-miterlimit="10" d="M304.903 746.207l.864.512L610.78 570.584l.904-.505V216.798L306.624 40.722l-.857-.53L.71 216.302l-.856.496v353.28l305.05 176.13z" fill="none"/><circle fill="#fff" cx="257.628" cy="393.346" r="5.428"/><circle fill="#fff" cx="305.729" cy="309.786" r="5.428"/><circle fill="#fff" cx="161.134" cy="393.346" r="5.425"/><path fill="#fff" d="M305.726 311.53l-98.985-.23 49.71-85.612 2.635 1.526-47.07 81.05 93.72.22zM256.315 394.11l-46.935-81.284-46.928 81.284-2.636-1.522 49.564-85.85 49.57 85.85zM212.016 311.307l-99.13-.007v-3.04h93.858l-46.928-81.284 2.636-1.522z"/><circle fill="#fff" cx="450.545" cy="393.346" r="5.425"/><circle fill="#fff" cx="354.05" cy="393.346" r="5.425"/><path fill="#fff" d="M498.643 311.53l-98.983-.23 49.71-85.612 2.63 1.526-47.065 81.05 93.71.22zM449.232 394.11L402.3 312.826l-46.932 81.284-2.636-1.522 49.567-85.85 49.568 85.85zM404.932 311.307l-99.13-.007v-3.04h93.86l-46.93-81.284 2.636-1.522z"/><circle fill="#fff" cx="305.802" cy="477.146" r="5.425"/><path fill="#fff" d="M498.643 478.883l-98.983-.226 49.71-85.61 2.63 1.527-47.065 81.055 93.71.213zM449.232 561.47L402.3 480.185l-46.932 81.283-2.636-1.53 49.567-85.835 49.568 85.836zM404.932 478.664l-99.13-.007v-3.04l93.86.007-46.93-81.288 2.636-1.522zM305.8 478.664l-98.986-.238 50.147-86.375h97.093v3.05h-95.338l-46.626 80.29 93.717.234zM256.388 561.236l-46.935-81.284-46.93 81.284-2.634-1.52 49.563-85.852 49.57 85.85zM212.09 478.43h-99.132v-3.044h93.86l-46.93-81.276 2.634-1.522z"/><circle fill="#fff" cx="209.38" cy="309.786" r="9.281"/><circle fill="#fff" cx="112.885" cy="309.786" r="5.428"/><circle fill="#fff" cx="257.631" cy="226.22" r="5.425"/><circle fill="#fff" cx="161.134" cy="226.22" r="5.425"/><circle fill="#fff" cx="402.299" cy="309.786" r="9.281"/><circle fill="#fff" cx="498.648" cy="309.786" r="5.428"/><circle fill="#fff" cx="402.299" cy="477.146" r="9.281"/><circle fill="#fff" cx="450.545" cy="560.704" r="5.425"/><circle fill="#fff" cx="498.648" cy="477.146" r="5.428"/><circle fill="#fff" cx="305.802" cy="309.786" r="5.425"/><circle fill="#fff" cx="450.55" cy="393.577" r="5.428"/><circle fill="#fff" cx="354.05" cy="393.577" r="5.425"/><circle fill="#fff" cx="354.05" cy="560.704" r="5.425"/><circle fill="#fff" cx="450.55" cy="226.22" r="5.428"/><circle fill="#fff" cx="354.05" cy="226.22" r="5.425"/><path fill="#fff" d="M218.736 476.905c0 5.126-4.16 9.29-9.284 9.29-5.13 0-9.28-4.163-9.28-9.29 0-5.116 4.15-9.27 9.28-9.27 5.127 0 9.284 4.153 9.284 9.27z"/><circle fill="#fff" cx="257.701" cy="560.473" r="5.425"/><circle fill="#fff" cx="305.802" cy="476.905" r="5.425"/><circle fill="#fff" cx="112.958" cy="476.905" r="5.428"/><circle fill="#fff" cx="257.704" cy="393.346" r="5.425"/><circle fill="#fff" cx="161.207" cy="393.346" r="5.428"/><circle fill="#fff" cx="161.207" cy="560.473" r="5.428"/></svg>