<svg xmlns="http://www.w3.org/2000/svg" width="595.584" height="687.805" viewBox="-4.152 112.573 595.584 687.805" enable-background="new -4.152 112.573 595.584 687.805"><path stroke="#fff" stroke-width="8" stroke-miterlimit="10" d="M292.809 795.269l.827.483 292.932-169.147.864-.483v-339.278l-292.973-169.1-.822-.51-292.967 169.131-.822.478v339.282l292.961 169.144z" fill="none"/><path fill="#fff" d="M293.639 516.393l-52.911-30.551v-61.107l52.93-30.551.377.236 52.522 30.315v61.117l-.382.212-52.536 30.329zm-51.452-31.398l51.45 29.709 51.45-29.709v-59.415l-51.456-29.695-51.445 29.695.001 59.415zm-111.189-140.186c5.032 0 9.106 4.074 9.106 9.103 0 5.035-4.074 9.105-9.105 9.105-5.022 0-9.104-4.068-9.104-9.105.002-5.029 4.081-9.103 9.105-9.103h-.002zm325.287 0c5.022 0 9.097 4.074 9.097 9.103 0 5.035-4.074 9.105-9.098 9.105-5.032 0-9.111-4.068-9.111-9.105-.003-5.028 4.079-9.103 9.112-9.103z"/><circle fill="#fff" cx="293.639" cy="455.29" r="5.323"/><circle fill="#fff" cx="456.277" cy="562.865" r="5.323"/><path fill="#fff" d="M292.912 353.912h1.458v208.953h-1.458v-208.953zm-161.921 208.226h325.287v1.458h-325.287v-1.458zm0-208.957h325.287v1.458h-325.287v-1.458z"/><circle fill="#fff" cx="383.807" cy="633.888" r="5.323"/><path fill="#fff" d="M293.281 562.41l.899 1.147-90.342 70.826-.898-1.147 90.341-70.826zm.82-.096l90.177 71.03-.901 1.145-90.175-71.03.899-1.145z"/><circle fill="#fff" cx="383.807" cy="491.842" r="5.323"/><circle fill="#fff" cx="473.983" cy="633.888" r="5.323"/><circle fill="#fff" cx="473.983" cy="491.842" r="5.323"/><circle fill="#fff" cx="130.999" cy="562.865" r="5.323"/><circle fill="#fff" cx="113.295" cy="633.888" r="5.323"/><circle fill="#fff" cx="113.295" cy="491.842" r="5.323"/><circle fill="#fff" cx="203.47" cy="633.888" r="5.323"/><circle fill="#fff" cx="203.47" cy="491.842" r="5.323"/><path fill="#fff" d="M203.938 491.262l90.173 71.016-.901 1.145-90.172-71.016.9-1.145zm-.835 71.151l.899 1.145-90.336 70.823-.899-1.145 90.336-70.823zm-89.368-71.132l90.179 71.032-.901 1.145-90.178-71.033.9-1.144zm-.435-75.45c5.024 0 9.098 4.075 9.098 9.106 0 5.035-4.073 9.105-9.097 9.105-5.032 0-9.111-4.07-9.111-9.106 0-5.031 4.082-9.105 9.11-9.105zm0-142.045c5.024 0 9.098 4.074 9.098 9.105 0 5.035-4.073 9.101-9.097 9.101-5.032 0-9.111-4.067-9.111-9.101 0-5.034 4.082-9.106 9.11-9.105zm89.823 79.686l.898 1.147-90.368 70.776-.899-1.147 90.369-70.776zm-89.384-71.15l90.179 71.03-.9 1.143-90.179-71.03.9-1.143zm269.709 209.066l.899 1.147-90.335 70.821-.898-1.147 90.334-70.821zm.835 70.892l90.173 71.016-.904 1.148-90.173-71.014.904-1.15zm89.223-71.082l.904 1.147-90.06 71.168-.907-1.147 90.063-71.168zm-89.248-137.844l90.185 71.036-.901 1.145-90.185-71.038.901-1.143zm89.128-71.198l.904 1.141-89.919 71.338-.904-1.14 89.919-71.339zm-269.915 133.675c5.03 0 9.104 4.075 9.104 9.106 0 5.035-4.074 9.105-9.105 9.105-5.025 0-9.106-4.07-9.106-9.106 0-5.032 4.082-9.105 9.105-9.105h.002zm89.826-62.361l.899 1.147-90.375 70.78-.898-1.145 90.374-70.782zm.801-.143l90.151 71.02-.9 1.142-90.152-71.02.901-1.142zm-90.627-61.334c5.03 0 9.104-4.075 9.104-9.111 0-5.032-4.074-9.098-9.105-9.098-5.025 0-9.106 4.068-9.106 9.098 0 5.038 4.082 9.111 9.105 9.111h.002zm180.336 123.838c5.032 0 9.105 4.075 9.105 9.106 0 5.035-4.075 9.105-9.106 9.105-5.024 0-9.105-4.07-9.105-9.106.003-5.031 4.083-9.105 9.106-9.105zm0-142.045c5.032 0 9.105 4.074 9.105 9.105 0 5.035-4.075 9.101-9.106 9.101-5.024 0-9.105-4.067-9.105-9.101.003-5.034 4.083-9.106 9.106-9.105zm90.176 142.045c5.029 0 9.105 4.075 9.105 9.106 0 5.035-4.077 9.105-9.105 9.105-5.024 0-9.105-4.07-9.105-9.106.002-5.031 4.081-9.105 9.105-9.105zm0-123.838c5.029 0 9.105-4.075 9.105-9.111 0-5.032-4.077-9.098-9.105-9.098-5.024 0-9.105 4.068-9.105 9.098.002 5.039 4.081 9.111 9.105 9.111zm-270.055-9.684l90.172 71.015-.9 1.141-90.172-71.015.9-1.141zm179.42.031l.9 1.142-90.194 70.991-.9-1.142 90.194-70.991zm-37.901 142.177l.733 1.27-104.354 60.325-.734-1.27 104.355-60.325zm-103.478-.094l104.044 60.426-.731 1.26-104.047-60.426.734-1.26z"/></svg>