<svg xmlns="http://www.w3.org/2000/svg" width="595.598" height="687.839" viewBox="-4.304 112.557 595.598 687.839" enable-background="new -4.304 112.557 595.598 687.839"><path stroke="#fff" stroke-width="8" stroke-miterlimit="10" d="M292.663 795.27l.83.492 292.933-169.159.868-.485v-339.289l-292.978-169.103-.823-.509-292.975 169.135-.822.476v339.288l292.967 169.154z" fill="none"/><circle fill="#fff" cx="247.26" cy="456.384" r="5.213"/><circle fill="#fff" cx="293.456" cy="376.134" r="5.213"/><circle fill="#fff" cx="154.588" cy="456.384" r="5.21"/><path fill="#fff" d="M293.453 377.809l-95.065-.221 47.741-82.221 2.531 1.466-45.206 77.84 90.008.211-.009 2.925zm-47.454 79.309l-45.076-78.065-45.069 78.065-2.532-1.462 47.601-82.45 47.607 82.45-2.531 1.462zm-42.544-79.523l-95.204-.007v-2.92h90.141l-45.069-78.065 2.532-1.462 47.6 82.454z"/><circle fill="#fff" cx="432.536" cy="456.384" r="5.21"/><circle fill="#fff" cx="339.863" cy="456.384" r="5.21"/><path fill="#fff" d="M478.73 377.809l-95.063-.221 47.741-82.221 2.526 1.466-45.201 77.84 89.999.211-.002 2.925zm-47.455 79.309l-45.073-78.065-45.073 78.065-2.532-1.462 47.604-82.45 47.605 82.45-2.531 1.462zm-42.545-79.523l-95.204-.007v-2.92h90.143l-45.071-78.065 2.532-1.462 47.6 82.454z"/><circle fill="#fff" cx="293.526" cy="536.865" r="5.21"/><path fill="#fff" d="M478.73 538.534l-95.063-.217 47.741-82.219 2.526 1.467-45.201 77.845 89.999.205-.002 2.919zm-47.455 79.316l-45.073-78.066-45.073 78.064-2.532-1.469 47.604-82.435 47.605 82.436-2.531 1.47zm-42.545-79.527l-95.204-.007v-2.92l90.143.007-45.071-78.068 2.532-1.462 47.6 82.45zm-95.206 0l-95.066-.229 48.161-82.954h93.248v2.929h-91.562l-44.779 77.11 90.005.225-.007 2.919zm-47.455 79.302l-45.076-78.065-45.071 78.065-2.53-1.46 47.6-82.452 47.607 82.45-2.53 1.462zm-42.543-79.526h-95.206v-2.923h90.143l-45.071-78.057 2.53-1.462 47.604 82.442z"/><circle fill="#fff" cx="200.923" cy="376.134" r="8.913"/><circle fill="#fff" cx="108.25" cy="376.134" r="5.213"/><circle fill="#fff" cx="247.263" cy="295.878" r="5.21"/><circle fill="#fff" cx="154.588" cy="295.878" r="5.21"/><circle fill="#fff" cx="386.201" cy="376.134" r="8.913"/><circle fill="#fff" cx="478.734" cy="376.134" r="5.213"/><circle fill="#fff" cx="386.201" cy="536.865" r="8.913"/><circle fill="#fff" cx="432.536" cy="617.114" r="5.21"/><circle fill="#fff" cx="478.734" cy="536.865" r="5.213"/><circle fill="#fff" cx="293.526" cy="376.134" r="5.21"/><circle fill="#fff" cx="432.541" cy="456.606" r="5.213"/><circle fill="#fff" cx="339.863" cy="456.606" r="5.21"/><circle fill="#fff" cx="339.863" cy="617.114" r="5.21"/><circle fill="#fff" cx="432.541" cy="295.878" r="5.213"/><circle fill="#fff" cx="339.863" cy="295.878" r="5.21"/><path fill="#fff" d="M209.909 536.634c0 4.923-3.995 8.922-8.916 8.922-4.927 0-8.912-3.998-8.912-8.922 0-4.913 3.986-8.903 8.912-8.903 4.923 0 8.916 3.989 8.916 8.903z"/><circle fill="#fff" cx="247.33" cy="616.892" r="5.21"/><circle fill="#fff" cx="293.526" cy="536.634" r="5.21"/><circle fill="#fff" cx="108.32" cy="536.634" r="5.213"/><circle fill="#fff" cx="247.333" cy="456.384" r="5.21"/><circle fill="#fff" cx="154.658" cy="456.384" r="5.213"/><circle fill="#fff" cx="154.658" cy="616.892" r="5.213"/></svg>