<svg xmlns="http://www.w3.org/2000/svg" width="595.595" height="687.824" viewBox="-4.157 112.555 595.595 687.824" enable-background="new -4.157 112.555 595.595 687.824"><path stroke="#fff" stroke-width="8" stroke-miterlimit="10" d="M292.807 795.268l.83.485 292.933-169.154.868-.485v-339.273l-292.982-169.1-.82-.516-292.967 169.132-.826.483v339.27l292.964 169.158z" fill="none"/><g fill="#fff"><circle cx="137.215" cy="309.419" r="9.104"/><circle cx="450.061" cy="603.555" r="9.104"/><path d="M409.085 309.419c0 5.026-4.076 9.101-9.101 9.101-5.038 0-9.099-4.076-9.099-9.101 0-5.028 4.064-9.101 9.1-9.101 5.026 0 9.101 4.073 9.1 9.101zm0 40.72c0 5.026-4.076 9.104-9.101 9.104-5.038 0-9.099-4.078-9.099-9.104s4.064-9.101 9.1-9.101c5.026-.002 9.101 4.073 9.1 9.101zm0 36.885c0 5.026-4.076 9.104-9.101 9.104-5.038 0-9.099-4.078-9.099-9.104 0-5.028 4.064-9.104 9.1-9.104 5.026-.002 9.101 4.073 9.1 9.104zm0 36.88c0 5.028-4.076 9.109-9.101 9.109-5.038 0-9.099-4.078-9.099-9.109 0-5.026 4.064-9.101 9.1-9.101 5.026 0 9.101 4.075 9.1 9.101zm0 36.89c0 5.024-4.076 9.104-9.101 9.104-5.038 0-9.099-4.078-9.099-9.104s4.064-9.104 9.1-9.104c5.026-.002 9.101 4.079 9.1 9.104zm0 36.88c0 5.034-4.076 9.104-9.101 9.104-5.038 0-9.099-4.071-9.099-9.104 0-5.026 4.064-9.099 9.1-9.099 5.026-.001 9.101 4.073 9.1 9.099z"/><circle cx="199.022" cy="350.139" r="9.107"/><circle cx="199.022" cy="423.904" r="9.107"/><circle cx="199.022" cy="497.674" r="9.107"/><path d="M409.085 537.848c0 5.026-4.076 9.099-9.101 9.099-5.038 0-9.099-4.073-9.099-9.1 0-5.034 4.064-9.104 9.1-9.104 5.026 0 9.101 4.071 9.1 9.105zm0 56.601c0 5.026-4.076 9.107-9.101 9.107-5.038 0-9.099-4.083-9.099-9.107s4.064-9.099 9.1-9.099c5.026-.001 9.101 4.073 9.1 9.099zm50.083-41.996c0 5.026-4.076 9.101-9.101 9.101-5.038 0-9.107-4.076-9.107-9.101 0-5.026 4.073-9.099 9.107-9.099 5.024-.002 9.101 4.073 9.101 9.099z"/><circle cx="199.022" cy="558.632" r="9.107"/><path d="M459.168 479.836c0 5.034-4.076 9.107-9.101 9.107-5.038 0-9.107-4.073-9.107-9.107 0-5.026 4.073-9.099 9.107-9.099 5.024 0 9.101 4.076 9.101 9.099zm0-72.06c0 5.028-4.076 9.104-9.101 9.104-5.038 0-9.107-4.076-9.107-9.104 0-5.024 4.073-9.101 9.107-9.101 5.024 0 9.101 4.08 9.101 9.101zm0-57.637c0 5.026-4.076 9.104-9.101 9.104-5.038 0-9.107-4.078-9.107-9.104s4.073-9.101 9.107-9.101c5.024-.002 9.101 4.073 9.101 9.101zm-311.182 185.517c0 5.026-4.083 9.104-9.122 9.104-5.026 0-9.095-4.078-9.095-9.104 0-5.028 4.071-9.104 9.095-9.104 5.038 0 9.122 4.076 9.122 9.104zm0-74.862c0 5.024-4.083 9.104-9.122 9.104-5.026 0-9.095-4.078-9.095-9.104s4.071-9.104 9.095-9.104c5.038-.002 9.122 4.079 9.122 9.104z"/><circle cx="137.215" cy="388.849" r="9.104"/><path d="M449.561 604.091l-28.234-26.053-21.043 18.421h-262.35l60.878-39.805h201.489l21.052 19.425 27.669-24.228-31.055-33.921-17.619 20.31h-264.724l62.718-42.569h.227l201.768.834 17.605 19.236 31.148-35.898-31.349-35.987-17.413 18.842h-263.142l61.156-41.035h202.004l.214.25 17.21 19.755 31.304-33.897-29.254-33.842-19.569 14.689h-263.964l62.069-39.44h201.992l19.687 22.768 28.842-21.646-49.119-40.146h-262.549v-1.46h263.062l50.973 41.658-30.254 22.704 30.042 34.746-32.296 34.972 32.296 37.07-32.108 36.984 32.175 35.141-28.67 25.106 28.123 25.953-.99 1.068-.001-.005zm-306.732-9.094h256.909l20.506-17.955-20.52-18.927h-200.475l-56.42 36.882zm-2.448-58.22h259.302l17.296-19.934-17.284-18.883-200.905-.836-58.409 39.653zm1.604-75.544h257.707l17.085-18.491-17.097-19.625h-200.889l-56.806 38.116zm-.68-74.084h258.462l19.091-14.328-19.177-22.186h-200.903l-57.473 36.514z"/></g></svg>