<svg xmlns="http://www.w3.org/2000/svg" viewBox="-4.146 35.533 619.829 715.821" enable-background="new -4.146 35.533 619.829 715.821"><path stroke="#fff" stroke-width="8" stroke-miterlimit="10" d="M304.903 746.207l.864.512L610.78 570.584l.904-.505V216.798L306.624 40.722l-.857-.53L.71 216.302l-.856.496v353.28l305.05 176.13z" fill="none"/><circle fill="#fff" cx="257.628" cy="393.346" r="5.428"/><circle fill="#fff" cx="305.729" cy="309.786" r="5.428"/><circle fill="#fff" cx="161.134" cy="393.346" r="5.425"/><linearGradient id="a" gradientUnits="userSpaceOnUse" x1="97.158" y1="622.539" x2="116.875" y2="588.389" gradientTransform="matrix(2.51 0 0 2.51 0 -1230.101)"><stop offset=".002" stop-color="#00B0A9"/><stop offset=".276" stop-color="#00AEA7"/><stop offset=".434" stop-color="#01A5A2"/><stop offset=".562" stop-color="#029798"/><stop offset=".675" stop-color="#04838A"/><stop offset=".777" stop-color="#066A79"/><stop offset=".872" stop-color="#094A63"/><stop offset=".959" stop-color="#0C254A"/><stop offset="1" stop-color="#0E113C"/></linearGradient><path fill="url(#a)" d="M305.726 311.53l-98.985-.23 49.71-85.612 2.635 1.526-47.07 81.05 93.72.22z"/><linearGradient id="b" gradientUnits="userSpaceOnUse" x1="63.66" y1="629.576" x2="103.148" y2="629.576" gradientTransform="matrix(2.51 0 0 2.51 0 -1230.101)"><stop offset=".002" stop-color="#00B0A9"/><stop offset=".276" stop-color="#00AEA7"/><stop offset=".434" stop-color="#01A5A2"/><stop offset=".562" stop-color="#029798"/><stop offset=".675" stop-color="#04838A"/><stop offset=".777" stop-color="#066A79"/><stop offset=".872" stop-color="#094A63"/><stop offset=".959" stop-color="#0C254A"/><stop offset="1" stop-color="#0E113C"/></linearGradient><path fill="url(#b)" d="M256.315 394.11l-46.935-81.284-46.928 81.284-2.636-1.522 49.564-85.85 49.57 85.85z"/><linearGradient id="c" gradientUnits="userSpaceOnUse" x1="44.966" y1="596.895" x2="84.453" y2="596.895" gradientTransform="matrix(2.51 0 0 2.51 0 -1230.101)"><stop offset=".002" stop-color="#00B0A9"/><stop offset=".276" stop-color="#00AEA7"/><stop offset=".434" stop-color="#01A5A2"/><stop offset=".562" stop-color="#029798"/><stop offset=".675" stop-color="#04838A"/><stop offset=".777" stop-color="#066A79"/><stop offset=".872" stop-color="#094A63"/><stop offset=".959" stop-color="#0C254A"/><stop offset="1" stop-color="#0E113C"/></linearGradient><path fill="url(#c)" d="M212.016 311.307l-99.13-.007v-3.04h93.858l-46.928-81.284 2.636-1.522z"/><circle fill="#fff" cx="450.545" cy="393.346" r="5.425"/><circle fill="#fff" cx="354.05" cy="393.346" r="5.425"/><linearGradient id="d" gradientUnits="userSpaceOnUse" x1="159.198" y1="596.986" x2="198.627" y2="596.986" gradientTransform="matrix(2.51 0 0 2.51 0 -1230.101)"><stop offset=".002" stop-color="#00B0A9"/><stop offset=".276" stop-color="#00AEA7"/><stop offset=".434" stop-color="#01A5A2"/><stop offset=".562" stop-color="#029798"/><stop offset=".675" stop-color="#04838A"/><stop offset=".777" stop-color="#066A79"/><stop offset=".872" stop-color="#094A63"/><stop offset=".959" stop-color="#0C254A"/><stop offset="1" stop-color="#0E113C"/></linearGradient><path fill="url(#d)" d="M498.643 311.53l-98.983-.23 49.71-85.612 2.63 1.526-47.065 81.05 93.71.22z"/><linearGradient id="e" gradientUnits="userSpaceOnUse" x1="140.505" y1="629.576" x2="179.994" y2="629.576" gradientTransform="matrix(2.51 0 0 2.51 0 -1230.101)"><stop offset=".002" stop-color="#00B0A9"/><stop offset=".276" stop-color="#00AEA7"/><stop offset=".434" stop-color="#01A5A2"/><stop offset=".562" stop-color="#029798"/><stop offset=".675" stop-color="#04838A"/><stop offset=".777" stop-color="#066A79"/><stop offset=".872" stop-color="#094A63"/><stop offset=".959" stop-color="#0C254A"/><stop offset="1" stop-color="#0E113C"/></linearGradient><path fill="url(#e)" d="M449.232 394.11L402.3 312.826l-46.932 81.284-2.636-1.522 49.567-85.85 49.568 85.85z"/><linearGradient id="f" gradientUnits="userSpaceOnUse" x1="136.357" y1="622.389" x2="156.1" y2="588.194" gradientTransform="matrix(2.51 0 0 2.51 0 -1230.101)"><stop offset=".002" stop-color="#00B0A9"/><stop offset=".276" stop-color="#00AEA7"/><stop offset=".434" stop-color="#01A5A2"/><stop offset=".562" stop-color="#029798"/><stop offset=".675" stop-color="#04838A"/><stop offset=".777" stop-color="#066A79"/><stop offset=".872" stop-color="#094A63"/><stop offset=".959" stop-color="#0C254A"/><stop offset="1" stop-color="#0E113C"/></linearGradient><path fill="url(#f)" d="M404.932 311.307l-99.13-.007v-3.04h93.86l-46.93-81.284 2.636-1.522z"/><circle fill="#fff" cx="305.802" cy="477.146" r="5.425"/><linearGradient id="g" gradientUnits="userSpaceOnUse" x1="159.198" y1="663.649" x2="198.627" y2="663.649" gradientTransform="matrix(2.51 0 0 2.51 0 -1230.101)"><stop offset=".002" stop-color="#00B0A9"/><stop offset=".276" stop-color="#00AEA7"/><stop offset=".434" stop-color="#01A5A2"/><stop offset=".562" stop-color="#029798"/><stop offset=".675" stop-color="#04838A"/><stop offset=".777" stop-color="#066A79"/><stop offset=".872" stop-color="#094A63"/><stop offset=".959" stop-color="#0C254A"/><stop offset="1" stop-color="#0E113C"/></linearGradient><path fill="url(#g)" d="M498.643 478.883l-98.983-.226 49.71-85.61 2.63 1.527-47.065 81.055 93.71.213z"/><linearGradient id="h" gradientUnits="userSpaceOnUse" x1="140.505" y1="696.242" x2="179.994" y2="696.242" gradientTransform="matrix(2.51 0 0 2.51 0 -1230.101)"><stop offset=".002" stop-color="#00B0A9"/><stop offset=".276" stop-color="#00AEA7"/><stop offset=".434" stop-color="#01A5A2"/><stop offset=".562" stop-color="#029798"/><stop offset=".675" stop-color="#04838A"/><stop offset=".777" stop-color="#066A79"/><stop offset=".872" stop-color="#094A63"/><stop offset=".959" stop-color="#0C254A"/><stop offset="1" stop-color="#0E113C"/></linearGradient><path fill="url(#h)" d="M449.232 561.47L402.3 480.185l-46.932 81.283-2.636-1.53 49.567-85.835 49.568 85.836z"/><linearGradient id="i" gradientUnits="userSpaceOnUse" x1="121.811" y1="663.559" x2="161.298" y2="663.559" gradientTransform="matrix(2.51 0 0 2.51 0 -1230.101)"><stop offset=".002" stop-color="#00B0A9"/><stop offset=".276" stop-color="#00AEA7"/><stop offset=".434" stop-color="#01A5A2"/><stop offset=".562" stop-color="#029798"/><stop offset=".675" stop-color="#04838A"/><stop offset=".777" stop-color="#066A79"/><stop offset=".872" stop-color="#094A63"/><stop offset=".959" stop-color="#0C254A"/><stop offset="1" stop-color="#0E113C"/></linearGradient><path fill="url(#i)" d="M404.932 478.664l-99.13-.007v-3.04l93.86.007-46.93-81.288 2.636-1.522z"/><linearGradient id="j" gradientUnits="userSpaceOnUse" x1="82.381" y1="663.408" x2="141.031" y2="663.408" gradientTransform="matrix(2.51 0 0 2.51 0 -1230.101)"><stop offset=".002" stop-color="#00B0A9"/><stop offset=".276" stop-color="#00AEA7"/><stop offset=".434" stop-color="#01A5A2"/><stop offset=".562" stop-color="#029798"/><stop offset=".675" stop-color="#04838A"/><stop offset=".777" stop-color="#066A79"/><stop offset=".872" stop-color="#094A63"/><stop offset=".959" stop-color="#0C254A"/><stop offset="1" stop-color="#0E113C"/></linearGradient><path fill="url(#j)" d="M305.8 478.664l-98.986-.238 50.147-86.375h97.093v3.05h-95.338l-46.626 80.29 93.717.234z"/><linearGradient id="k" gradientUnits="userSpaceOnUse" x1="63.689" y1="696.148" x2="103.178" y2="696.148" gradientTransform="matrix(2.51 0 0 2.51 0 -1230.101)"><stop offset=".002" stop-color="#00B0A9"/><stop offset=".276" stop-color="#00AEA7"/><stop offset=".434" stop-color="#01A5A2"/><stop offset=".562" stop-color="#029798"/><stop offset=".675" stop-color="#04838A"/><stop offset=".777" stop-color="#066A79"/><stop offset=".872" stop-color="#094A63"/><stop offset=".959" stop-color="#0C254A"/><stop offset="1" stop-color="#0E113C"/></linearGradient><path fill="url(#k)" d="M256.388 561.236l-46.935-81.284-46.93 81.284-2.634-1.52 49.563-85.852 49.57 85.85z"/><linearGradient id="l" gradientUnits="userSpaceOnUse" x1="44.995" y1="663.468" x2="84.482" y2="663.468" gradientTransform="matrix(2.51 0 0 2.51 0 -1230.101)"><stop offset=".002" stop-color="#00B0A9"/><stop offset=".276" stop-color="#00AEA7"/><stop offset=".434" stop-color="#01A5A2"/><stop offset=".562" stop-color="#029798"/><stop offset=".675" stop-color="#04838A"/><stop offset=".777" stop-color="#066A79"/><stop offset=".872" stop-color="#094A63"/><stop offset=".959" stop-color="#0C254A"/><stop offset="1" stop-color="#0E113C"/></linearGradient><path fill="url(#l)" d="M212.09 478.43h-99.132v-3.044h93.86l-46.93-81.276 2.634-1.522z"/><circle fill="#fff" cx="209.38" cy="309.786" r="9.281"/><circle fill="#fff" cx="112.885" cy="309.786" r="5.428"/><circle fill="#fff" cx="257.631" cy="226.22" r="5.425"/><circle fill="#fff" cx="161.134" cy="226.22" r="5.425"/><circle fill="#fff" cx="402.299" cy="309.786" r="9.281"/><circle fill="#fff" cx="498.648" cy="309.786" r="5.428"/><circle fill="#fff" cx="402.299" cy="477.146" r="9.281"/><circle fill="#fff" cx="450.545" cy="560.704" r="5.425"/><circle fill="#fff" cx="498.648" cy="477.146" r="5.428"/><circle fill="#fff" cx="305.802" cy="309.786" r="5.425"/><circle fill="#fff" cx="450.55" cy="393.577" r="5.428"/><circle fill="#fff" cx="354.05" cy="393.577" r="5.425"/><circle fill="#fff" cx="354.05" cy="560.704" r="5.425"/><circle fill="#fff" cx="450.55" cy="226.22" r="5.428"/><circle fill="#fff" cx="354.05" cy="226.22" r="5.425"/><path fill="#fff" d="M218.736 476.905c0 5.126-4.16 9.29-9.284 9.29-5.13 0-9.28-4.163-9.28-9.29 0-5.116 4.15-9.27 9.28-9.27 5.127 0 9.284 4.153 9.284 9.27z"/><circle fill="#fff" cx="257.701" cy="560.473" r="5.425"/><circle fill="#fff" cx="305.802" cy="476.905" r="5.425"/><circle fill="#fff" cx="112.958" cy="476.905" r="5.428"/><circle fill="#fff" cx="257.704" cy="393.346" r="5.425"/><circle fill="#fff" cx="161.207" cy="393.346" r="5.428"/><circle fill="#fff" cx="161.207" cy="560.473" r="5.428"/></svg>