<svg xmlns="http://www.w3.org/2000/svg" viewBox="0 0 830.376 373.522" enable-background="new 0 0 830.376 373.522"><path d="M0 256.175h48.448c14.173 0 25.55 4.45 32.47 11.364 5.443 5.442 8.73 13.187 8.73 21.76 0 19.288-14.33 30.326-33.784 32.96l38.07 49.288H83.06l-36.75-47.805H8.563v47.805H0V256.175zm47.456 59.83c19.294 0 33.63-9.724 33.63-26.705 0-15.483-12.204-25.218-33.128-25.218H8.562v51.923h38.894zM108.95 329.355c0-24.387 17.14-43.84 39.885-43.84 23.564 0 38.56 19.114 38.56 43.998 0 1.49 0 1.974-.162 3.3h-69.716c1.483 20.93 16.48 33.124 32.966 33.124 13.01 0 21.917-5.77 28.837-13.182l5.6 4.94c-8.567 9.233-18.617 15.826-34.77 15.826-22.082.002-41.2-17.634-41.2-44.165zm69.715-3.795c-1.156-16.972-10.885-32.628-30.163-32.628-16.644 0-29.503 14.003-30.986 32.628h61.15zM197.294 287.49h9.396l31.81 74.99 32.125-74.99h9.07l-37.733 84.713h-6.927l-37.74-84.713zM290.084 329.355c0-24.387 17.14-43.84 39.88-43.84 23.576 0 38.573 19.114 38.573 43.998 0 1.49 0 1.974-.163 3.3h-69.717c1.484 20.93 16.486 33.124 32.955 33.124 13.034 0 21.928-5.77 28.848-13.182l5.612 4.94c-8.578 9.233-18.63 15.826-34.788 15.826-22.08.002-41.2-17.634-41.2-44.165zm69.71-3.795c-1.145-16.972-10.868-32.628-30.15-32.628-16.644 0-29.504 14.003-30.988 32.628h61.138zM391.125 287.49h8.082v23.89c6.588-14.99 20.592-25.863 37.235-25.21v8.9h-.818c-19.446 0-36.417 14.663-36.417 42.03v34.448h-8.082V287.49zM464.14 353.404v18.145h-8.075V251.23h8.076v55.052c7.254-11.05 17.96-20.766 34.62-20.766 20.26 0 40.86 16.31 40.86 43.997 0 27.36-20.602 44.01-40.86 44.01-16.82 0-27.7-9.566-34.62-20.12zm66.75-23.89c0-22.08-15.33-36.25-32.965-36.25-17.468 0-34.275 14.66-34.275 36.42 0 21.583 16.807 36.09 34.275 36.09 18.302 0 32.965-13.352 32.965-36.26zM563.862 287.49h8.07v23.89c6.6-14.99 20.604-25.863 37.252-25.21v8.9h-.822c-19.447 0-36.43 14.663-36.43 42.03v34.448h-8.07V287.49zM617.76 346.823c0-17.468 15-27.355 36.754-27.355 11.698 0 19.775 1.478 27.852 3.627v-3.627c0-16.977-10.378-25.72-27.693-25.72-10.214 0-18.618 2.804-26.366 6.758l-2.968-7.083c9.227-4.287 18.29-7.254 29.824-7.254 11.382 0 20.444 3.13 26.54 9.227 5.608 5.6 8.57 13.35 8.57 23.733v52.418h-7.908v-14.015c-5.77 8.076-16.153 15.988-32.138 15.988-15.663.002-32.47-8.897-32.47-26.697zm64.768-6.757V330.5c-7.09-1.816-16.48-3.785-28.516-3.785-17.8 0-27.682 7.907-27.682 19.943 0 12.193 11.54 19.278 24.394 19.278 17.14 0 31.804-10.546 31.804-25.87zM718.467 254.535h10.05v11.03h-10.05v-11.03zm.98 32.955h8.082v84.06h-8.082v-84.06zM758.353 287.49h8.076v15.657c5.6-9.883 14.99-17.63 30.314-17.63 21.264 0 33.632 14.5 33.632 34.6v51.432H822.3V321.6c0-17.304-9.73-28.668-26.7-28.668-16.486 0-29.17 12.52-29.17 29.988v48.628h-8.077V287.49zM427.95 84.612c0 7.056-5.71 12.763-12.766 12.763-7.055 0-12.796-5.707-12.796-12.763 0-7.09 5.742-12.78 12.796-12.78 7.056 0 12.765 5.69 12.765 12.78zM415.394.118l-.21-.118-73.042 42.176-.214.12v84.594l73.05 42.164.208.124 73.045-42.165.215-.123V42.295L415.395.118zm-67.24 45.77l67.03-38.697 67.027 38.697v77.393l-67.025 38.69-67.03-38.69V45.887z"/></svg>