<svg xmlns="http://www.w3.org/2000/svg" width="595.596" height="687.847" viewBox="-4.158 112.542 595.596 687.847" enable-background="new -4.158 112.542 595.596 687.847"><path stroke="#fff" stroke-width="8" stroke-miterlimit="10" d="M292.802 795.268l.832.49 292.942-169.167.862-.476v-339.282l-292.986-169.103-.817-.516-292.976 169.135-.817.483v339.282l292.96 169.154z" fill="none"/><linearGradient id="a" gradientUnits="userSpaceOnUse" x1="55.555" y1="602.017" x2="187.94" y2="602.017" gradientTransform="matrix(2.411 0 0 2.411 -.695 -995.172)"><stop offset="0" stop-color="#0E113C"/><stop offset=".041" stop-color="#0C254A"/><stop offset=".128" stop-color="#094A63"/><stop offset=".223" stop-color="#066A79"/><stop offset=".325" stop-color="#04838A"/><stop offset=".438" stop-color="#029798"/><stop offset=".566" stop-color="#01A5A2"/><stop offset=".724" stop-color="#00AEA7"/><stop offset=".998" stop-color="#00B0A9"/></linearGradient><path fill="url(#a)" d="M449.072 604.626l-27.764-25.606-20.756 18.172h-265.09l63.122-41.271h201.994l20.78 19.175 26.608-23.301-29.986-32.767-17.308 19.944h-267.423l64.865-44.04h.452l202.087.836 17.27 18.866 30.2-34.792-30.4-34.902-17.078 18.487h-265.862l63.328-42.503h202.561l17.116 19.644 30.314-32.829-28.391-32.814-19.217 14.418h-266.73l64.373-40.902h202.541l19.462 22.507 27.55-20.681-48.207-39.388h-262.278v-2.92h263.324l.401.322 51.499 42.088-30.374 22.797 29.964 34.644-32.298 34.973 32.273 37.047-32.087 36.979 32.229 35.207-28.613 25.074 27.518 25.401-1.969 2.135zm-303.795-10.358h254.18l19.687-17.242-19.71-18.178h-199.982l-54.175 35.42zm-2.523-58.223h256.589l16.651-19.185-16.631-18.173-200.361-.822-56.248 38.18zm1.624-75.546h254.992l16.418-17.775-16.442-18.884h-200.34l-54.628 36.659zm-.56-74.082h255.703l18.279-13.713-18.455-21.343h-200.357l-55.17 35.056z"/><path fill="#fff" d="M146.312 309.419c0 5.019-4.073 9.102-9.107 9.102-5.024 0-9.102-4.083-9.102-9.102 0-5.031 4.075-9.109 9.101-9.109 5.033 0 9.107 4.078 9.108 9.109zm262.768 0c0 5.019-4.073 9.102-9.1 9.102-5.038 0-9.102-4.083-9.102-9.102 0-5.031 4.066-9.109 9.101-9.109 5.027 0 9.1 4.078 9.101 9.109zm0 40.715c0 5.026-4.073 9.109-9.1 9.109-5.038 0-9.102-4.083-9.102-9.109 0-5.031 4.066-9.107 9.101-9.107 5.027 0 9.1 4.076 9.101 9.107zm0 36.893c0 5.021-4.073 9.098-9.1 9.098-5.038 0-9.102-4.077-9.102-9.098 0-5.031 4.066-9.107 9.101-9.107 5.027-.002 9.1 4.076 9.101 9.107zm0 36.878c0 5.031-4.073 9.109-9.1 9.109-5.038 0-9.102-4.076-9.102-9.109 0-5.034 4.066-9.109 9.101-9.109 5.027 0 9.1 4.078 9.101 9.109zm0 36.879c0 5.034-4.073 9.107-9.1 9.107-5.038 0-9.102-4.073-9.102-9.107 0-5.019 4.066-9.095 9.101-9.095 5.027 0 9.1 4.075 9.101 9.095zm0 36.892c0 5.026-4.073 9.1-9.1 9.1-5.038 0-9.102-4.073-9.102-9.1 0-5.026 4.066-9.102 9.101-9.102 5.027.001 9.1 4.077 9.101 9.102zm-200.953-147.542c0 5.026-4.083 9.109-9.107 9.109-5.026 0-9.109-4.083-9.109-9.109 0-5.031 4.083-9.107 9.109-9.107 5.022 0 9.107 4.076 9.107 9.107zm0 73.771c0 5.031-4.083 9.109-9.107 9.109-5.026 0-9.109-4.076-9.109-9.109 0-5.034 4.083-9.109 9.109-9.109 5.022 0 9.107 4.078 9.107 9.109zm0 73.771c0 5.026-4.083 9.1-9.107 9.1-5.026 0-9.109-4.073-9.109-9.1 0-5.026 4.083-9.102 9.109-9.102 5.022.001 9.107 4.077 9.107 9.102zm200.953 40.168c0 5.031-4.073 9.107-9.1 9.107-5.038 0-9.102-4.077-9.102-9.107 0-5.034 4.066-9.109 9.101-9.109 5.027 0 9.1 4.076 9.101 9.109zm0 56.604c0 5.026-4.073 9.107-9.1 9.107-5.038 0-9.102-4.083-9.102-9.107 0-5.026 4.066-9.1 9.101-9.1 5.027-.002 9.1 4.074 9.101 9.1zm50.086-41.991c0 5.019-4.078 9.095-9.104 9.095-5.036 0-9.104-4.073-9.104-9.095 0-5.034 4.071-9.109 9.104-9.109 5.024-.003 9.104 4.075 9.104 9.109zm0 51.098c0 5.026-4.078 9.102-9.104 9.102-5.036 0-9.104-4.075-9.104-9.101 0-5.024 4.071-9.107 9.104-9.107 5.024 0 9.104 4.083 9.104 9.106zm-251.039-44.924c0 5.026-4.083 9.107-9.107 9.107-5.026 0-9.109-4.083-9.109-9.107 0-5.026 4.083-9.1 9.109-9.1 5.022 0 9.107 4.073 9.107 9.1zm251.039-78.79c0 5.026-4.078 9.102-9.104 9.102-5.036 0-9.104-4.076-9.104-9.102 0-5.034 4.071-9.107 9.104-9.107 5.024 0 9.104 4.073 9.104 9.107zm0-72.071c0 5.034-4.078 9.107-9.104 9.107-5.036 0-9.104-4.073-9.104-9.107 0-5.019 4.071-9.095 9.104-9.095 5.024.001 9.104 4.077 9.104 9.095zm0-57.636c0 5.026-4.078 9.109-9.104 9.109-5.036 0-9.104-4.083-9.104-9.109 0-5.031 4.071-9.107 9.104-9.107 5.024 0 9.104 4.076 9.104 9.107zm-311.186 185.52c0 5.026-4.081 9.102-9.122 9.102-5.024 0-9.095-4.075-9.095-9.101 0-5.024 4.071-9.107 9.095-9.107 5.039 0 9.122 4.082 9.122 9.106zm0-74.87c0 5.034-4.081 9.107-9.122 9.107-5.024 0-9.095-4.073-9.095-9.107 0-5.019 4.071-9.095 9.095-9.095 5.039 0 9.122 4.075 9.122 9.095z"/><circle fill="#fff" cx="137.207" cy="388.846" r="9.104"/></svg>