<svg xmlns="http://www.w3.org/2000/svg" viewBox="-4 35.522 619.651 715.604" enable-background="new -4 35.522 619.651 715.604"><path stroke="#fff" stroke-width="8" stroke-miterlimit="10" d="M304.958 745.996l.864.505 304.926-176.08.904-.505V216.753L306.675 40.73l-.854-.537L.86 216.25l-.86.503v353.16l304.958 176.083z" fill="none"/><g fill="#fff"><circle cx="142.996" cy="240.256" r="9.477"/><circle cx="468.65" cy="546.434" r="9.477"/><path d="M425.997 240.256c0 5.232-4.243 9.474-9.474 9.474-5.244 0-9.472-4.243-9.472-9.474 0-5.234 4.23-9.474 9.473-9.474 5.232 0 9.474 4.24 9.474 9.474zM425.997 282.643c0 5.232-4.243 9.477-9.474 9.477-5.244 0-9.472-4.245-9.472-9.477s4.23-9.474 9.473-9.474c5.232-.002 9.474 4.24 9.474 9.473zM425.997 321.038c0 5.232-4.243 9.477-9.474 9.477-5.244 0-9.472-4.245-9.472-9.477 0-5.234 4.23-9.477 9.473-9.477 5.232-.002 9.474 4.24 9.474 9.478zM425.997 359.428c0 5.234-4.243 9.482-9.474 9.482-5.244 0-9.472-4.245-9.472-9.482 0-5.232 4.23-9.474 9.473-9.474 5.232 0 9.474 4.242 9.474 9.474zM425.997 397.828c0 5.23-4.243 9.477-9.474 9.477-5.244 0-9.472-4.245-9.472-9.477s4.23-9.477 9.473-9.477c5.232-.002 9.474 4.246 9.474 9.478zM425.997 436.218c0 5.24-4.243 9.477-9.474 9.477-5.244 0-9.472-4.238-9.472-9.477 0-5.232 4.23-9.472 9.473-9.472 5.232 0 9.474 4.24 9.474 9.472z"/><circle cx="207.334" cy="282.643" r="9.48"/><circle cx="207.334" cy="359.428" r="9.48"/><circle cx="207.334" cy="436.218" r="9.48"/><path d="M425.997 478.037c0 5.232-4.243 9.472-9.474 9.472-5.244 0-9.472-4.24-9.472-9.473 0-5.24 4.23-9.477 9.473-9.477 5.232 0 9.474 4.238 9.474 9.477zM425.997 536.955c0 5.232-4.243 9.48-9.474 9.48-5.244 0-9.472-4.25-9.472-9.48s4.23-9.472 9.473-9.472c5.232 0 9.474 4.24 9.474 9.472zM478.13 493.24c0 5.232-4.243 9.474-9.474 9.474-5.244 0-9.48-4.243-9.48-9.474 0-5.232 4.24-9.472 9.48-9.472 5.23-.002 9.474 4.24 9.474 9.472z"/><circle cx="207.334" cy="499.672" r="9.48"/><path d="M478.13 417.65c0 5.24-4.243 9.48-9.474 9.48-5.244 0-9.48-4.24-9.48-9.48 0-5.232 4.24-9.472 9.48-9.472 5.23 0 9.474 4.243 9.474 9.472zM478.13 342.64c0 5.234-4.243 9.477-9.474 9.477-5.244 0-9.48-4.243-9.48-9.477 0-5.23 4.24-9.474 9.48-9.474 5.23 0 9.474 4.247 9.474 9.474zM478.13 282.643c0 5.232-4.243 9.477-9.474 9.477-5.244 0-9.48-4.245-9.48-9.477s4.24-9.474 9.48-9.474c5.23-.002 9.474 4.24 9.474 9.473zM154.208 475.755c0 5.232-4.25 9.477-9.495 9.477-5.232 0-9.467-4.245-9.467-9.477 0-5.234 4.238-9.477 9.467-9.477 5.244 0 9.495 4.243 9.495 9.477zM154.208 397.828c0 5.23-4.25 9.477-9.495 9.477-5.232 0-9.467-4.245-9.467-9.477s4.238-9.477 9.467-9.477c5.244-.002 9.495 4.246 9.495 9.478z"/><circle cx="142.996" cy="322.938" r="9.477"/><path d="M468.13 546.992l-29.39-27.12-21.905 19.175h-273.09l63.37-41.435h209.738l21.914 20.22 28.802-25.22-32.326-35.31-18.34 21.142H141.34l65.286-44.312h.236L416.89 435l18.326 20.023 32.423-37.368-32.632-37.46-18.126 19.613H142.966l63.66-42.715H416.9l.223.26 17.915 20.564 32.586-35.285-30.452-35.227-20.37 15.29H142.03l64.61-41.055h210.262l20.493 23.7 30.023-22.532-51.13-41.79H142.99v-1.52h273.832l53.06 43.363-31.493 23.634 31.272 36.168-33.618 36.404 33.618 38.588-33.422 38.498 33.492 36.58-29.844 26.134 29.274 27.015-1.03 1.112zm-319.29-9.467h267.427l21.346-18.69-21.36-19.702H207.57l-58.73 38.392zm-2.548-60.603H416.21l18.004-20.75-17.992-19.656-209.13-.87-60.8 41.276zm1.67-78.637H416.22l17.784-19.248-17.797-20.428H207.093l-59.13 39.675zm-.708-77.117h269.044l19.873-14.915-19.962-23.094H207.08l-59.826 38.008z"/></g></svg>