<svg xmlns="http://www.w3.org/2000/svg" viewBox="-4 35.52 619.641 715.615" enable-background="new -4 35.52 619.641 715.615"><path stroke="#fff" stroke-width="8" stroke-miterlimit="10" d="M304.948 745.996l.866.51 304.93-176.09.897-.496V216.753L306.666 40.73l-.85-.537L.85 216.25l-.85.503V569.92l304.948 176.076z" fill="none"/><linearGradient id="a" gradientUnits="userSpaceOnUse" x1="55.315" y1="646.594" x2="187.657" y2="646.594" gradientTransform="matrix(2.51 0 0 2.51 0 -1230.101)"><stop offset="0" stop-color="#0E113C"/><stop offset=".041" stop-color="#0C254A"/><stop offset=".128" stop-color="#094A63"/><stop offset=".223" stop-color="#066A79"/><stop offset=".325" stop-color="#04838A"/><stop offset=".438" stop-color="#029798"/><stop offset=".566" stop-color="#01A5A2"/><stop offset=".724" stop-color="#00AEA7"/><stop offset=".998" stop-color="#00B0A9"/></linearGradient><path fill="url(#a)" d="M467.613 547.552l-28.9-26.654-21.605 18.916H141.17l65.705-42.96h210.26l21.63 19.96 27.697-24.255-31.213-34.108-18.016 20.76H138.866l67.52-45.842h.47l210.357.87 17.977 19.638 31.436-36.216-31.644-36.33-17.777 19.244H140.463l65.92-44.242h210.85l17.816 20.448 31.555-34.172-29.553-34.157-20.003 15.008H139.402l67.007-42.576h210.83l20.258 23.428 28.677-21.527-50.18-41H142.984v-3.04h274.1l.417.335 53.606 43.81-31.617 23.73 31.19 36.062-33.62 36.404 33.594 38.563-33.4 38.492 33.548 36.648-29.784 26.1 28.644 26.44-2.05 2.222zM151.386 536.77h264.582l20.493-17.948-20.517-18.922H207.778l-56.392 36.87zm-2.626-60.606h267.09l17.332-19.97-17.312-18.917-208.56-.856-58.55 39.744zm1.69-78.638h265.427l17.09-18.502-17.115-19.657H207.314l-56.865 38.16zm-.583-77.113h266.167l19.027-14.274-19.21-22.216H207.295l-57.427 36.49z"/><path fill="#fff" d="M152.463 240.264c0 5.224-4.24 9.474-9.48 9.474-5.23 0-9.474-4.25-9.474-9.474 0-5.237 4.242-9.482 9.473-9.482 5.24 0 9.48 4.245 9.48 9.482zM425.985 240.264c0 5.224-4.24 9.474-9.472 9.474-5.244 0-9.474-4.25-9.474-9.474 0-5.237 4.232-9.482 9.473-9.482 5.232 0 9.472 4.245 9.472 9.482zM425.985 282.645c0 5.232-4.24 9.482-9.472 9.482-5.244 0-9.474-4.25-9.474-9.482 0-5.237 4.232-9.48 9.473-9.48 5.232 0 9.472 4.243 9.472 9.48zM425.985 321.048c0 5.227-4.24 9.47-9.472 9.47-5.244 0-9.474-4.244-9.474-9.47 0-5.237 4.232-9.48 9.473-9.48 5.232-.002 9.472 4.243 9.472 9.48zM425.985 359.435c0 5.237-4.24 9.482-9.472 9.482-5.244 0-9.474-4.243-9.474-9.482 0-5.24 4.232-9.482 9.473-9.482 5.232 0 9.472 4.245 9.472 9.482zM425.985 397.823c0 5.24-4.24 9.48-9.472 9.48-5.244 0-9.474-4.24-9.474-9.48 0-5.224 4.232-9.467 9.473-9.467 5.232 0 9.472 4.242 9.472 9.467zM425.985 436.225c0 5.232-4.24 9.472-9.472 9.472-5.244 0-9.474-4.24-9.474-9.472 0-5.232 4.232-9.474 9.473-9.474 5.232 0 9.472 4.243 9.472 9.475zM216.808 282.645c0 5.232-4.25 9.482-9.48 9.482-5.232 0-9.482-4.25-9.482-9.482 0-5.237 4.25-9.48 9.482-9.48 5.228 0 9.48 4.243 9.48 9.48zM216.808 359.435c0 5.237-4.25 9.482-9.48 9.482-5.232 0-9.482-4.243-9.482-9.482 0-5.24 4.25-9.482 9.482-9.482 5.228 0 9.48 4.245 9.48 9.482zM216.808 436.225c0 5.232-4.25 9.472-9.48 9.472-5.232 0-9.482-4.24-9.482-9.472 0-5.232 4.25-9.474 9.482-9.474 5.228 0 9.48 4.243 9.48 9.475zM425.985 478.037c0 5.237-4.24 9.48-9.472 9.48-5.244 0-9.474-4.244-9.474-9.48 0-5.24 4.232-9.482 9.473-9.482 5.232 0 9.472 4.243 9.472 9.482zM425.985 536.957c0 5.232-4.24 9.48-9.472 9.48-5.244 0-9.474-4.25-9.474-9.48 0-5.232 4.232-9.472 9.473-9.472 5.232-.002 9.472 4.24 9.472 9.472zM478.12 493.248c0 5.224-4.245 9.467-9.477 9.467-5.242 0-9.477-4.24-9.477-9.467 0-5.24 4.238-9.482 9.477-9.482 5.23-.003 9.477 4.242 9.477 9.482zM478.12 546.437c0 5.232-4.245 9.474-9.477 9.474-5.242 0-9.477-4.242-9.477-9.473 0-5.23 4.238-9.48 9.477-9.48 5.23 0 9.477 4.25 9.477 9.48zM216.808 499.674c0 5.232-4.25 9.48-9.48 9.48-5.232 0-9.482-4.25-9.482-9.48 0-5.232 4.25-9.472 9.482-9.472 5.228 0 9.48 4.24 9.48 9.472zM478.12 417.66c0 5.232-4.245 9.474-9.477 9.474-5.242 0-9.477-4.243-9.477-9.474 0-5.24 4.238-9.48 9.477-9.48 5.23 0 9.477 4.24 9.477 9.48zM478.12 342.64c0 5.24-4.245 9.48-9.477 9.48-5.242 0-9.477-4.24-9.477-9.48 0-5.224 4.238-9.467 9.477-9.467 5.23 0 9.477 4.243 9.477 9.467zM478.12 282.645c0 5.232-4.245 9.482-9.477 9.482-5.242 0-9.477-4.25-9.477-9.482 0-5.237 4.238-9.48 9.477-9.48 5.23 0 9.477 4.243 9.477 9.48zM154.2 475.757c0 5.232-4.248 9.474-9.495 9.474-5.23 0-9.467-4.242-9.467-9.473 0-5.23 4.238-9.48 9.467-9.48 5.245 0 9.495 4.25 9.495 9.48zM154.2 397.823c0 5.24-4.248 9.48-9.495 9.48-5.23 0-9.467-4.24-9.467-9.48 0-5.224 4.238-9.467 9.467-9.467 5.245 0 9.495 4.242 9.495 9.467z"/><circle fill="#fff" cx="142.986" cy="322.941" r="9.477"/></svg>