<svg xmlns="http://www.w3.org/2000/svg" viewBox="-3.997 35.535 619.834 715.812" enable-background="new -3.997 35.535 619.834 715.812"><path stroke="#fff" stroke-width="8" stroke-miterlimit="10" d="M305.05 746.217l.865.505 305.023-176.126.9-.502V216.808L306.775 40.725l-.864-.532L.852 216.303l-.85.506v353.284l305.05 176.123z" fill="none"/><linearGradient id="a" gradientUnits="userSpaceOnUse" x1="121.253" y1="647.505" x2="122.463" y2="647.505" gradientTransform="matrix(2.51 0 0 2.51 0 -1230.101)"><stop offset=".002" stop-color="#00B0A9"/><stop offset=".276" stop-color="#00AEA7"/><stop offset=".434" stop-color="#01A5A2"/><stop offset=".562" stop-color="#029798"/><stop offset=".675" stop-color="#04838A"/><stop offset=".777" stop-color="#066A79"/><stop offset=".872" stop-color="#094A63"/><stop offset=".959" stop-color="#0C254A"/><stop offset="1" stop-color="#0E113C"/></linearGradient><path fill="url(#a)" d="M304.4 286.647h3.04V504.22h-3.04z"/><linearGradient id="b" gradientUnits="userSpaceOnUse" x1="84.083" y1="705.568" x2="122.231" y2="705.568" gradientTransform="matrix(2.51 0 0 2.51 0 -1230.101)"><stop offset="0" stop-color="#0E113C"/><stop offset=".041" stop-color="#0C254A"/><stop offset=".128" stop-color="#094A63"/><stop offset=".223" stop-color="#066A79"/><stop offset=".325" stop-color="#04838A"/><stop offset=".438" stop-color="#029798"/><stop offset=".566" stop-color="#01A5A2"/><stop offset=".724" stop-color="#00AEA7"/><stop offset=".998" stop-color="#00B0A9"/></linearGradient><path fill="url(#b)" d="M212.957 579.372l-1.87-2.388 93.88-73.955 1.89 2.386z"/><linearGradient id="c" gradientUnits="userSpaceOnUse" x1="121.479" y1="705.568" x2="159.633" y2="705.568" gradientTransform="matrix(2.51 0 0 2.51 0 -1230.101)"><stop offset=".002" stop-color="#00B0A9"/><stop offset=".173" stop-color="#039395"/><stop offset=".743" stop-color="#0B3655"/><stop offset="1" stop-color="#0E113C"/></linearGradient><path fill="url(#c)" d="M398.867 579.372l-93.9-73.956 1.89-2.387 93.895 73.954z"/><path fill="#fff" d="M118.132 572.636c3.053 0 5.536 2.483 5.536 5.546 0 3.065-2.483 5.54-5.536 5.54-3.068 0-5.55-2.474-5.55-5.54 0-3.063 2.482-5.546 5.55-5.546zM118.132 435.81c3.053 0 5.536-2.48 5.536-5.542 0-3.065-2.483-5.54-5.536-5.54-3.068 0-5.55 2.474-5.55 5.54 0 3.063 2.482 5.543 5.55 5.543zM212.028 572.636c3.053 0 5.536 2.483 5.536 5.546 0 3.065-2.483 5.54-5.536 5.54-3.068 0-5.55-2.474-5.55-5.54 0-3.063 2.485-5.546 5.55-5.546z"/><linearGradient id="d" gradientUnits="userSpaceOnUse" x1="84.083" y1="676.109" x2="122.231" y2="676.109" gradientTransform="matrix(2.51 0 0 2.51 0 -1230.101)"><stop offset="0" stop-color="#0E113C"/><stop offset=".041" stop-color="#0C254A"/><stop offset=".128" stop-color="#094A63"/><stop offset=".223" stop-color="#066A79"/><stop offset=".325" stop-color="#04838A"/><stop offset=".438" stop-color="#029798"/><stop offset=".566" stop-color="#01A5A2"/><stop offset=".724" stop-color="#00AEA7"/><stop offset=".998" stop-color="#00B0A9"/></linearGradient><path fill="url(#d)" d="M304.968 505.416l-93.88-73.953 1.87-2.39 93.898 73.956z"/><linearGradient id="e" gradientUnits="userSpaceOnUse" x1="46.68" y1="705.568" x2="84.828" y2="705.568" gradientTransform="matrix(2.51 0 0 2.51 0 -1230.101)"><stop offset="0" stop-color="#0E113C"/><stop offset=".041" stop-color="#0C254A"/><stop offset=".128" stop-color="#094A63"/><stop offset=".223" stop-color="#066A79"/><stop offset=".325" stop-color="#04838A"/><stop offset=".438" stop-color="#029798"/><stop offset=".566" stop-color="#01A5A2"/><stop offset=".724" stop-color="#00AEA7"/><stop offset=".998" stop-color="#00B0A9"/></linearGradient><path fill="url(#e)" d="M119.074 579.372l-1.886-2.388 93.9-73.955 1.87 2.386z"/><linearGradient id="f" gradientUnits="userSpaceOnUse" x1="46.68" y1="676.109" x2="84.828" y2="676.109" gradientTransform="matrix(2.51 0 0 2.51 0 -1230.101)"><stop offset="0" stop-color="#0E113C"/><stop offset=".041" stop-color="#0C254A"/><stop offset=".128" stop-color="#094A63"/><stop offset=".223" stop-color="#066A79"/><stop offset=".325" stop-color="#04838A"/><stop offset=".438" stop-color="#029798"/><stop offset=".566" stop-color="#01A5A2"/><stop offset=".724" stop-color="#00AEA7"/><stop offset=".998" stop-color="#00B0A9"/></linearGradient><path fill="url(#f)" d="M211.087 505.416l-93.9-73.953 1.887-2.39 93.883 73.956z"/><linearGradient id="g" gradientUnits="userSpaceOnUse" x1="46.68" y1="618.9" x2="84.828" y2="618.9" gradientTransform="matrix(2.51 0 0 2.51 0 -1230.101)"><stop offset="0" stop-color="#0E113C"/><stop offset=".041" stop-color="#0C254A"/><stop offset=".128" stop-color="#094A63"/><stop offset=".223" stop-color="#066A79"/><stop offset=".325" stop-color="#04838A"/><stop offset=".438" stop-color="#029798"/><stop offset=".566" stop-color="#01A5A2"/><stop offset=".724" stop-color="#00AEA7"/><stop offset=".998" stop-color="#00B0A9"/></linearGradient><path fill="url(#g)" d="M119.074 361.793l-1.886-2.385 93.9-73.954 1.87 2.383z"/><linearGradient id="h" gradientUnits="userSpaceOnUse" x1="46.68" y1="589.441" x2="84.828" y2="589.441" gradientTransform="matrix(2.51 0 0 2.51 0 -1230.101)"><stop offset="0" stop-color="#0E113C"/><stop offset=".041" stop-color="#0C254A"/><stop offset=".128" stop-color="#094A63"/><stop offset=".223" stop-color="#066A79"/><stop offset=".325" stop-color="#04838A"/><stop offset=".438" stop-color="#029798"/><stop offset=".566" stop-color="#01A5A2"/><stop offset=".724" stop-color="#00AEA7"/><stop offset=".998" stop-color="#00B0A9"/></linearGradient><path fill="url(#h)" d="M211.087 287.837l-93.9-73.956 1.887-2.384 93.883 73.958z"/><linearGradient id="i" gradientUnits="userSpaceOnUse" x1="121.479" y1="676.109" x2="159.633" y2="676.109" gradientTransform="matrix(2.51 0 0 2.51 0 -1230.101)"><stop offset=".002" stop-color="#00B0A9"/><stop offset=".173" stop-color="#039395"/><stop offset=".743" stop-color="#0B3655"/><stop offset="1" stop-color="#0E113C"/></linearGradient><path fill="url(#i)" d="M306.856 505.416l-1.888-2.387 93.9-73.957 1.884 2.39z"/><linearGradient id="j" gradientUnits="userSpaceOnUse" x1="158.882" y1="705.568" x2="197.031" y2="705.568" gradientTransform="matrix(2.51 0 0 2.51 0 -1230.101)"><stop offset=".002" stop-color="#00B0A9"/><stop offset=".173" stop-color="#039395"/><stop offset=".743" stop-color="#0B3655"/><stop offset="1" stop-color="#0E113C"/></linearGradient><path fill="url(#j)" d="M492.768 579.372l-93.9-73.956 1.884-2.387 93.887 73.954z"/><linearGradient id="k" gradientUnits="userSpaceOnUse" x1="158.882" y1="676.109" x2="197.031" y2="676.109" gradientTransform="matrix(2.51 0 0 2.51 0 -1230.101)"><stop offset=".002" stop-color="#00B0A9"/><stop offset=".173" stop-color="#039395"/><stop offset=".743" stop-color="#0B3655"/><stop offset="1" stop-color="#0E113C"/></linearGradient><path fill="url(#k)" d="M400.752 505.416l-1.885-2.387 93.9-73.957 1.872 2.39z"/><linearGradient id="l" gradientUnits="userSpaceOnUse" x1="158.882" y1="618.9" x2="197.031" y2="618.9" gradientTransform="matrix(2.51 0 0 2.51 0 -1230.101)"><stop offset=".002" stop-color="#00B0A9"/><stop offset=".173" stop-color="#039395"/><stop offset=".743" stop-color="#0B3655"/><stop offset="1" stop-color="#0E113C"/></linearGradient><path fill="url(#l)" d="M492.768 361.793l-93.9-73.956 1.884-2.383 93.887 73.954z"/><linearGradient id="m" gradientUnits="userSpaceOnUse" x1="158.882" y1="589.441" x2="197.031" y2="589.441" gradientTransform="matrix(2.51 0 0 2.51 0 -1230.101)"><stop offset=".002" stop-color="#00B0A9"/><stop offset=".173" stop-color="#039395"/><stop offset=".743" stop-color="#0B3655"/><stop offset="1" stop-color="#0E113C"/></linearGradient><path fill="url(#m)" d="M400.752 287.837l-1.885-2.383 93.9-73.958 1.872 2.385z"/><linearGradient id="n" gradientUnits="userSpaceOnUse" x1="84.083" y1="618.9" x2="122.231" y2="618.9" gradientTransform="matrix(2.51 0 0 2.51 0 -1230.101)"><stop offset="0" stop-color="#0E113C"/><stop offset=".041" stop-color="#0C254A"/><stop offset=".128" stop-color="#094A63"/><stop offset=".223" stop-color="#066A79"/><stop offset=".325" stop-color="#04838A"/><stop offset=".438" stop-color="#029798"/><stop offset=".566" stop-color="#01A5A2"/><stop offset=".724" stop-color="#00AEA7"/><stop offset=".998" stop-color="#00B0A9"/></linearGradient><path fill="url(#n)" d="M212.957 361.793l-1.87-2.385 93.88-73.954 1.89 2.383z"/><linearGradient id="o" gradientUnits="userSpaceOnUse" x1="121.479" y1="618.9" x2="159.633" y2="618.9" gradientTransform="matrix(2.51 0 0 2.51 0 -1230.101)"><stop offset=".002" stop-color="#00B0A9"/><stop offset=".173" stop-color="#039395"/><stop offset=".743" stop-color="#0B3655"/><stop offset="1" stop-color="#0E113C"/></linearGradient><path fill="url(#o)" d="M398.867 361.793l-93.9-73.956 1.89-2.383 93.895 73.954z"/><path fill="#fff" d="M399.81 351.123c5.233 0 9.48 4.243 9.48 9.48 0 5.244-4.248 9.482-9.48 9.482-5.23 0-9.478-4.238-9.478-9.482 0-5.24 4.247-9.48 9.48-9.48zM493.71 351.123c5.23 0 9.48 4.243 9.48 9.48 0 5.244-4.25 9.482-9.48 9.482-5.232 0-9.48-4.238-9.48-9.482-.002-5.24 4.248-9.48 9.48-9.48zM399.81 435.81c3.054 0 5.537-2.48 5.537-5.542 0-3.065-2.483-5.54-5.536-5.54-3.067 0-5.552 2.474-5.552 5.54 0 3.063 2.488 5.543 5.553 5.543z"/><linearGradient id="p" gradientUnits="userSpaceOnUse" x1="84.083" y1="589.441" x2="122.231" y2="589.441" gradientTransform="matrix(2.51 0 0 2.51 0 -1230.101)"><stop offset="0" stop-color="#0E113C"/><stop offset=".041" stop-color="#0C254A"/><stop offset=".128" stop-color="#094A63"/><stop offset=".223" stop-color="#066A79"/><stop offset=".325" stop-color="#04838A"/><stop offset=".438" stop-color="#029798"/><stop offset=".566" stop-color="#01A5A2"/><stop offset=".724" stop-color="#00AEA7"/><stop offset=".998" stop-color="#00B0A9"/></linearGradient><path fill="url(#p)" d="M304.968 287.837l-93.88-73.956 1.87-2.384 93.898 73.958z"/><circle fill="#fff" cx="493.71" cy="430.268" r="5.543"/><linearGradient id="q" gradientUnits="userSpaceOnUse" x1="121.479" y1="589.441" x2="159.633" y2="589.441" gradientTransform="matrix(2.51 0 0 2.51 0 -1230.101)"><stop offset=".002" stop-color="#00B0A9"/><stop offset=".173" stop-color="#039395"/><stop offset=".743" stop-color="#0B3655"/><stop offset="1" stop-color="#0E113C"/></linearGradient><path fill="url(#q)" d="M306.856 287.837l-1.888-2.383 93.9-73.958 1.884 2.385z"/><linearGradient id="r" gradientUnits="userSpaceOnUse" x1="99.912" y1="646.218" x2="143.804" y2="646.218" gradientTransform="matrix(2.51 0 0 2.51 0 -1230.101)"><stop offset="0" stop-color="#0E113C"/><stop offset=".041" stop-color="#0C254A"/><stop offset=".128" stop-color="#094A63"/><stop offset=".223" stop-color="#066A79"/><stop offset=".325" stop-color="#04838A"/><stop offset=".438" stop-color="#029798"/><stop offset=".566" stop-color="#01A5A2"/><stop offset=".724" stop-color="#00AEA7"/><stop offset=".998" stop-color="#00B0A9"/></linearGradient><path fill="url(#r)" d="M252.34 424.898l-1.515-2.636 108.665-62.75 1.524 2.637z"/><linearGradient id="s" gradientUnits="userSpaceOnUse" x1="99.97" y1="646.219" x2="143.741" y2="646.219" gradientTransform="matrix(2.51 0 0 2.51 0 -1230.101)"><stop offset="0" stop-color="#0E113C"/><stop offset=".041" stop-color="#0C254A"/><stop offset=".128" stop-color="#094A63"/><stop offset=".223" stop-color="#066A79"/><stop offset=".325" stop-color="#04838A"/><stop offset=".438" stop-color="#029798"/><stop offset=".566" stop-color="#01A5A2"/><stop offset=".724" stop-color="#00AEA7"/><stop offset=".998" stop-color="#00B0A9"/></linearGradient><path fill="url(#s)" d="M359.33 424.986l-108.36-62.93 1.53-2.628 108.356 62.93z"/><path fill="#fff" d="M212.028 435.81c3.053 0 5.536-2.48 5.536-5.542 0-3.065-2.483-5.54-5.536-5.54-3.068 0-5.55 2.474-5.55 5.54 0 3.063 2.485 5.543 5.55 5.543zM399.81 572.636c3.054 0 5.537 2.483 5.537 5.546 0 3.065-2.483 5.54-5.536 5.54-3.067 0-5.552-2.474-5.552-5.54 0-3.063 2.488-5.546 5.553-5.546z"/><linearGradient id="t" gradientUnits="userSpaceOnUse" x1="54.396" y1="690.839" x2="189.313" y2="690.839" gradientTransform="matrix(2.51 0 0 2.51 0 -1230.101)"><stop offset=".002" stop-color="#00B0A9"/><stop offset=".276" stop-color="#00AEA7"/><stop offset=".434" stop-color="#01A5A2"/><stop offset=".562" stop-color="#029798"/><stop offset=".675" stop-color="#04838A"/><stop offset=".777" stop-color="#066A79"/><stop offset=".872" stop-color="#094A63"/><stop offset=".959" stop-color="#0C254A"/><stop offset="1" stop-color="#0E113C"/></linearGradient><path fill="url(#t)" d="M136.56 502.702h338.703v3.043H136.56z"/><circle fill="#fff" cx="493.71" cy="578.179" r="5.543"/><path fill="#fff" d="M118.132 351.123c5.232 0 9.48 4.243 9.48 9.48 0 5.244-4.25 9.482-9.48 9.482-5.232 0-9.48-4.238-9.48-9.482-.002-5.24 4.248-9.48 9.48-9.48zM118.132 203.212c5.232 0 9.48 4.245 9.48 9.482 0 5.244-4.25 9.48-9.48 9.48-5.232 0-9.48-4.238-9.48-9.48-.002-5.24 4.248-9.482 9.48-9.482zM305.912 386.666c3.068 0 5.548 2.483 5.548 5.543 0 3.064-2.483 5.542-5.548 5.542-3.055 0-5.538-2.478-5.538-5.543.003-3.06 2.485-5.544 5.538-5.544zM212.028 351.123c5.23 0 9.48 4.243 9.48 9.48 0 5.244-4.248 9.482-9.48 9.482s-9.482-4.238-9.482-9.482c.003-5.24 4.253-9.48 9.482-9.48z"/><linearGradient id="u" gradientUnits="userSpaceOnUse" x1="99.607" y1="633.367" x2="144.111" y2="659.061" gradientTransform="matrix(2.51 0 0 2.51 0 -1230.101)"><stop offset=".002" stop-color="#00B0A9"/><stop offset=".276" stop-color="#00AEA7"/><stop offset=".434" stop-color="#01A5A2"/><stop offset=".562" stop-color="#029798"/><stop offset=".675" stop-color="#04838A"/><stop offset=".777" stop-color="#066A79"/><stop offset=".872" stop-color="#094A63"/><stop offset=".959" stop-color="#0C254A"/><stop offset="1" stop-color="#0E113C"/></linearGradient><path fill="url(#u)" d="M305.912 456.713l-55.858-32.254v-64.507l55.898-32.264.783.496 55.034 31.767v64.52l-.784.438-55.074 31.803zM253.11 422.7l52.805 30.496 52.82-30.497V361.71l-52.82-30.487-52.805 30.487V422.7z"/><path fill="#fff" d="M212.028 222.173c5.23 0 9.48-4.24 9.48-9.487 0-5.24-4.248-9.474-9.48-9.474s-9.482 4.238-9.482 9.474c.003 5.245 4.253 9.487 9.482 9.487zM399.81 203.212c5.233 0 9.48 4.245 9.48 9.482 0 5.244-4.248 9.48-9.48 9.48-5.23 0-9.478-4.238-9.478-9.48 0-5.24 4.247-9.482 9.48-9.482z"/><linearGradient id="v" gradientUnits="userSpaceOnUse" x1="54.396" y1="604.169" x2="189.313" y2="604.169" gradientTransform="matrix(2.51 0 0 2.51 0 -1230.101)"><stop offset=".002" stop-color="#00B0A9"/><stop offset=".276" stop-color="#00AEA7"/><stop offset=".434" stop-color="#01A5A2"/><stop offset=".562" stop-color="#029798"/><stop offset=".675" stop-color="#04838A"/><stop offset=".777" stop-color="#066A79"/><stop offset=".872" stop-color="#094A63"/><stop offset=".959" stop-color="#0C254A"/><stop offset="1" stop-color="#0E113C"/></linearGradient><path fill="url(#v)" d="M136.56 285.12h338.703v3.046H136.56z"/><path fill="#fff" d="M493.71 222.173c5.23 0 9.48-4.24 9.48-9.487 0-5.24-4.25-9.474-9.48-9.474-5.232 0-9.48 4.238-9.48 9.474-.002 5.245 4.248 9.487 9.48 9.487zM475.265 498.683c3.068 0 5.553 2.48 5.553 5.54 0 3.07-2.485 5.544-5.553 5.544-3.053 0-5.536-2.473-5.536-5.543 0-3.06 2.483-5.54 5.535-5.54zM136.56 498.683c3.067 0 5.547 2.48 5.547 5.54 0 3.07-2.483 5.544-5.548 5.544-3.054 0-5.537-2.473-5.537-5.543 0-3.06 2.483-5.54 5.536-5.54zM136.56 277.167c5.243 0 9.478 4.24 9.478 9.48 0 5.244-4.235 9.48-9.48 9.48-5.23 0-9.48-4.236-9.48-9.48 0-5.24 4.252-9.48 9.48-9.48zM475.28 277.167c5.232 0 9.467 4.24 9.467 9.48 0 5.244-4.235 9.48-9.467 9.48-5.244 0-9.495-4.236-9.495-9.48 0-5.24 4.25-9.48 9.495-9.48z"/></svg>